<svg xmlns="http://www.w3.org/2000/svg" xmlns:xlink="http://www.w3.org/1999/xlink" contentStyleType="text/css" data-diagram-type="SEQUENCE" height="454px" preserveAspectRatio="none" style="width:1199px;height:454px;background:#FFFFFF;" version="1.1" viewBox="0 0 1199 454" width="1199px" zoomAndPan="magnify"><title>&#1059;&#1076;&#1072;&#1083;&#1077;&#1085;&#1080;&#1077; &#1076;&#1072;&#1085;&#1085;&#1099;&#1093; &#1087;&#1086;&#1083;&#1100;&#1079;&#1086;&#1074;&#1072;&#1090;&#1077;&#1083;&#1103;</title><defs/><g><text fill="#000000" font-family="DejaVu Sans" font-size="14" font-weight="bold" lengthAdjust="spacing" textLength="263.1221" x="466.582" y="27.9951">&#1059;&#1076;&#1072;&#1083;&#1077;&#1085;&#1080;&#1077; &#1076;&#1072;&#1085;&#1085;&#1099;&#1093; &#1087;&#1086;&#1083;&#1100;&#1079;&#1086;&#1074;&#1072;&#1090;&#1077;&#1083;&#1103;</text><g><title>...........</title><rect fill="#000000" fill-opacity="0.00000" height="274.1953" width="8" x="67.5854" y="103.4297"/><line style="stroke:#181818;stroke-width:0.5;stroke-dasharray:5,5;" x1="71" x2="71" y1="103.4297" y2="377.625"/></g><g><title>..... .......</title><rect fill="#000000" fill-opacity="0.00000" height="274.1953" width="8" x="260.0396" y="103.4297"/><line style="stroke:#181818;stroke-width:0.5;stroke-dasharray:5,5;" x1="263.8909" x2="263.8909" y1="103.4297" y2="377.625"/></g><g><title>...........</title><rect fill="#000000" fill-opacity="0.00000" height="274.1953" width="8" x="593.8687" y="103.4297"/><line style="stroke:#181818;stroke-width:0.5;stroke-dasharray:5,5;" x1="597.7048" x2="597.7048" y1="103.4297" y2="377.625"/></g><g><title>database.db</title><rect fill="#000000" fill-opacity="0.00000" height="274.1953" width="8" x="878.186" y="103.4297"/><line style="stroke:#181818;stroke-width:0.5;stroke-dasharray:5,5;" x1="881.7324" x2="881.7324" y1="103.4297" y2="377.625"/></g><g class="participant participant-head" data-participant="O"><rect fill="#E2E2F0" height="44.2656" rx="4" ry="4" style="stroke:#181818;stroke-width:0.5;" width="133.1709" x="5" y="58.1641"/><text fill="#000000" font-family="DejaVu Sans" font-size="13" lengthAdjust="spacing" textLength="89.0513" x="27.0598" y="77.231">&#1054;&#1088;&#1082;&#1077;&#1089;&#1090;&#1088;&#1072;&#1090;&#1086;&#1088;</text><text fill="#000000" font-family="DejaVu Sans" font-size="13" lengthAdjust="spacing" textLength="119.1709" x="12" y="92.3638">(&#1084;&#1086;&#1076;&#1091;&#1083;&#1100; &#1072;&#1075;&#1077;&#1085;&#1090;&#1086;&#1074;)</text></g><g class="participant participant-tail" data-participant="O"><rect fill="#E2E2F0" height="44.2656" rx="4" ry="4" style="stroke:#181818;stroke-width:0.5;" width="133.1709" x="5" y="376.625"/><text fill="#000000" font-family="DejaVu Sans" font-size="13" lengthAdjust="spacing" textLength="89.0513" x="27.0598" y="395.6919">&#1054;&#1088;&#1082;&#1077;&#1089;&#1090;&#1088;&#1072;&#1090;&#1086;&#1088;</text><text fill="#000000" font-family="DejaVu Sans" font-size="13" lengthAdjust="spacing" textLength="119.1709" x="12" y="410.8247">(&#1084;&#1086;&#1076;&#1091;&#1083;&#1100; &#1072;&#1075;&#1077;&#1085;&#1090;&#1086;&#1074;)</text></g><g class="participant participant-head" data-participant="F"><rect fill="#E2E2F0" height="29.1328" rx="4" ry="4" style="stroke:#181818;stroke-width:0.5;" width="122.2974" x="202.8909" y="73.2969"/><text fill="#000000" font-family="DejaVu Sans" font-size="13" lengthAdjust="spacing" textLength="108.2974" x="209.8909" y="92.3638">&#1060;&#1072;&#1089;&#1072;&#1076; &#1092;&#1091;&#1085;&#1082;&#1094;&#1080;&#1081;</text></g><g class="participant participant-tail" data-participant="F"><rect fill="#E2E2F0" height="29.1328" rx="4" ry="4" style="stroke:#181818;stroke-width:0.5;" width="122.2974" x="202.8909" y="376.625"/><text fill="#000000" font-family="DejaVu Sans" font-size="13" lengthAdjust="spacing" textLength="108.2974" x="209.8909" y="395.6919">&#1060;&#1072;&#1089;&#1072;&#1076; &#1092;&#1091;&#1085;&#1082;&#1094;&#1080;&#1081;</text></g><g class="participant participant-head" data-participant="R"><rect fill="#E2E2F0" height="29.1328" rx="4" ry="4" style="stroke:#181818;stroke-width:0.5;" width="102.3276" x="546.7048" y="73.2969"/><text fill="#000000" font-family="DejaVu Sans" font-size="13" lengthAdjust="spacing" textLength="88.3276" x="553.7048" y="92.3638">&#1056;&#1077;&#1087;&#1086;&#1079;&#1080;&#1090;&#1086;&#1088;&#1080;&#1080;</text></g><g class="participant participant-tail" data-participant="R"><rect fill="#E2E2F0" height="29.1328" rx="4" ry="4" style="stroke:#181818;stroke-width:0.5;" width="102.3276" x="546.7048" y="376.625"/><text fill="#000000" font-family="DejaVu Sans" font-size="13" lengthAdjust="spacing" textLength="88.3276" x="553.7048" y="395.6919">&#1056;&#1077;&#1087;&#1086;&#1079;&#1080;&#1090;&#1086;&#1088;&#1080;&#1080;</text></g><g class="participant participant-head" data-participant="DB"><text fill="#000000" font-family="DejaVu Sans" font-size="13" lengthAdjust="spacing" textLength="80.9072" x="838.7324" y="100.3638">database.db</text><path d="M864.186,52.2969 C864.186,42.2969 882.186,42.2969 882.186,42.2969 C882.186,42.2969 900.186,42.2969 900.186,52.2969 L900.186,78.2969 C900.186,88.2969 882.186,88.2969 882.186,88.2969 C882.186,88.2969 864.186,88.2969 864.186,78.2969 L864.186,52.2969" fill="#E2E2F0" style="stroke:#181818;stroke-width:0.5;"/><path d="M864.186,52.2969 C864.186,62.2969 882.186,62.2969 882.186,62.2969 C882.186,62.2969 900.186,62.2969 900.186,52.2969" fill="none" style="stroke:#181818;stroke-width:0.5;"/></g><g class="participant participant-tail" data-participant="DB"><text fill="#000000" font-family="DejaVu Sans" font-size="13" lengthAdjust="spacing" textLength="80.9072" x="838.7324" y="388.6919">database.db</text><path d="M864.186,401.7578 C864.186,391.7578 882.186,391.7578 882.186,391.7578 C882.186,391.7578 900.186,391.7578 900.186,401.7578 L900.186,427.7578 C900.186,437.7578 882.186,437.7578 882.186,437.7578 C882.186,437.7578 864.186,437.7578 864.186,427.7578 L864.186,401.7578" fill="#E2E2F0" style="stroke:#181818;stroke-width:0.5;"/><path d="M864.186,401.7578 C864.186,411.7578 882.186,411.7578 882.186,411.7578 C882.186,411.7578 900.186,411.7578 900.186,401.7578" fill="none" style="stroke:#181818;stroke-width:0.5;"/></g><g class="message" data-participant-1="O" data-participant-2="F"><polygon fill="#444444" points="252.0396,130.5625,262.0396,134.5625,252.0396,138.5625,256.0396,134.5625" style="stroke:#444444;stroke-width:1;"/><line style="stroke:#444444;stroke-width:1;" x1="71.5854" x2="258.0396" y1="134.5625" y2="134.5625"/><text fill="#000000" font-family="DejaVu Sans" font-size="13" lengthAdjust="spacing" textLength="168.4541" x="78.5854" y="129.4966">delete_user_data(user_id)</text></g><g class="message" data-participant-1="F" data-participant-2="R"><polygon fill="#444444" points="585.8687,159.6953,595.8687,163.6953,585.8687,167.6953,589.8687,163.6953" style="stroke:#444444;stroke-width:1;"/><line style="stroke:#444444;stroke-width:1;" x1="264.0396" x2="591.8687" y1="163.6953" y2="163.6953"/><text fill="#000000" font-family="DejaVu Sans" font-size="13" lengthAdjust="spacing" textLength="132.6724" x="271.0396" y="158.6294">delete_user(user_id)</text></g><g class="message" data-participant-1="R" data-participant-2="DB"><polygon fill="#444444" points="870.186,188.8281,880.186,192.8281,870.186,196.8281,874.186,192.8281" style="stroke:#444444;stroke-width:1;"/><line style="stroke:#444444;stroke-width:1;" x1="597.8687" x2="876.186" y1="192.8281" y2="192.8281"/><text fill="#000000" font-family="DejaVu Sans" font-size="13" lengthAdjust="spacing" textLength="40.7646" x="604.8687" y="187.7622">BEGIN</text></g><g class="message" data-participant-1="R" data-participant-2="DB"><polygon fill="#444444" points="870.186,217.9609,880.186,221.9609,870.186,225.9609,874.186,221.9609" style="stroke:#444444;stroke-width:1;"/><line style="stroke:#444444;stroke-width:1;" x1="597.8687" x2="876.186" y1="221.9609" y2="221.9609"/><text fill="#000000" font-family="DejaVu Sans" font-size="13" lengthAdjust="spacing" textLength="260.3174" x="604.8687" y="216.895">DELETE FROM users WHERE user_id = ?</text></g><path d="M887,238.9609 L887,270.9609 A4,4 0 0 0 891,274.9609 L1188,274.9609 A4,4 0 0 0 1192,270.9609 L1192,244.9609 L1182,234.9609 L891,234.9609 A4,4 0 0 0 887,238.9609" fill="#FEFFDD" style="stroke:#181818;stroke-width:0.5;"/><path d="M1182,234.9609 L1182,242.9609 A2,2 0 0 0 1184,244.9609 L1192,244.9609 L1182,234.9609" fill="#FEFFDD" style="stroke:#181818;stroke-width:0.5;"/><text fill="#000000" font-family="DejaVu Sans" font-size="13" lengthAdjust="spacing" textLength="258.8193" x="893" y="252.0278">ON DELETE CASCADE &#1091;&#1076;&#1072;&#1083;&#1103;&#1077;&#1090; &#1086;&#1094;&#1077;&#1085;&#1082;&#1080;,</text><text fill="#000000" font-family="DejaVu Sans" font-size="13" lengthAdjust="spacing" textLength="284.2861" x="893" y="267.1606">&#1074;&#1099;&#1073;&#1086;&#1088;&#1099;, &#1085;&#1072;&#1087;&#1086;&#1084;&#1080;&#1085;&#1072;&#1085;&#1080;&#1103;, &#1087;&#1086;&#1076;&#1087;&#1080;&#1089;&#1082;&#1080;, &#1089;&#1077;&#1089;&#1089;&#1080;&#1102;</text><g class="message" data-participant-1="R" data-participant-2="DB"><polygon fill="#444444" points="870.186,297.3594,880.186,301.3594,870.186,305.3594,874.186,301.3594" style="stroke:#444444;stroke-width:1;"/><line style="stroke:#444444;stroke-width:1;" x1="597.8687" x2="876.186" y1="301.3594" y2="301.3594"/><text fill="#000000" font-family="DejaVu Sans" font-size="13" lengthAdjust="spacing" textLength="53.5171" x="604.8687" y="296.2935">COMMIT</text></g><g class="message" data-participant-1="R" data-participant-2="F"><polygon fill="#444444" points="275.0396,326.4922,265.0396,330.4922,275.0396,334.4922,271.0396,330.4922" style="stroke:#444444;stroke-width:1;"/><line style="stroke:#444444;stroke-width:1;stroke-dasharray:2,2;" x1="269.0396" x2="596.8687" y1="330.4922" y2="330.4922"/><text fill="#000000" font-family="DejaVu Sans" font-size="13" lengthAdjust="spacing" textLength="309.8291" x="281.0396" y="325.4263">&#1082;&#1086;&#1083;&#1080;&#1095;&#1077;&#1089;&#1090;&#1074;&#1086; &#1091;&#1076;&#1072;&#1083;&#1105;&#1085;&#1085;&#1099;&#1093; &#1079;&#1072;&#1087;&#1080;&#1089;&#1077;&#1081; &#1087;&#1086; &#1090;&#1072;&#1073;&#1083;&#1080;&#1094;&#1072;&#1084;</text></g><g class="message" data-participant-1="F" data-participant-2="O"><polygon fill="#444444" points="82.5854,355.625,72.5854,359.625,82.5854,363.625,78.5854,359.625" style="stroke:#444444;stroke-width:1;"/><line style="stroke:#444444;stroke-width:1;stroke-dasharray:2,2;" x1="76.5854" x2="263.0396" y1="359.625" y2="359.625"/><text fill="#000000" font-family="DejaVu Sans" font-size="13" lengthAdjust="spacing" textLength="115.6987" x="88.5854" y="354.5591">{deleted_counts}</text></g><!--SRC=[NLBTIW915BxVfpXvbM0zG53Xprf1kh05tGIokLCjRAkuuqL4e5PsOIIzG0Jr06QAcxhs2cVUg7F6nEfcvioSxpldc-_CYXUK_Rehe1JAIr-iU_KBtv2Uz0NWAmwmXnCSOemH3a4VOunLHzq1Vk4C9-e1HxJtiQTQX9kehb5rQj8hUrKda930PzN0CGvLKxKeOjHCDOw3LPmIRQ1kk0HGsG_kmbdi9nFWX63zA_H6v2O11w1kYHRZMBL9rQS6v_-1NwWQwnjXDEz8o4WZRSDrf7FYX08IYsZTFT6vNCQmO6qByh01hl255ALwA6ebngtgo7EJHfuXzb_8CcjpDfUXTCRSsIl-EkVCVVFGXBnj5O3X8HpjchO9FrJOX6qZg4W1DU_iN4BbbFK0MCK5Cvi-oAPp9j3hzLnKbtnj0JslhKSqnYX51Eoh3hxperKd1NJVqrPCoO9OpozItTHyV0DQ8tALcK0xZwb9Du-625nWCR_qPwr2OU-GBtui8Xhz08BVp-TBls2s5FUq_2aZBO4R3V5JTmP2zqWaiziKJTbLAcjHsQkvhswfNAa7Chp-1W00]--></g></svg>