<svg xmlns="http://www.w3.org/2000/svg" xmlns:xlink="http://www.w3.org/1999/xlink" contentStyleType="text/css" data-diagram-type="STATE" height="363px" preserveAspectRatio="none" style="width:554px;height:363px;background:#FFFFFF;" version="1.1" viewBox="0 0 554 363" width="554px" zoomAndPan="magnify"><title>&#1046;&#1080;&#1079;&#1085;&#1077;&#1085;&#1085;&#1099;&#1081; &#1094;&#1080;&#1082;&#1083; &#1079;&#1072;&#1075;&#1088;&#1091;&#1079;&#1082;&#1080; &#1082;&#1072;&#1090;&#1072;&#1083;&#1086;&#1075;&#1072;</title><defs/><g><g class="title" data-source-line="2"><text fill="#000000" font-family="DejaVu Sans" font-size="14" font-weight="bold" lengthAdjust="spacing" textLength="295.2646" x="80.1177" y="22.9951">&#1046;&#1080;&#1079;&#1085;&#1077;&#1085;&#1085;&#1099;&#1081; &#1094;&#1080;&#1082;&#1083; &#1079;&#1072;&#1075;&#1088;&#1091;&#1079;&#1082;&#1080; &#1082;&#1072;&#1090;&#1072;&#1083;&#1086;&#1075;&#1072;</text></g><ellipse cx="249.5" cy="59.2969" fill="#222222" rx="10" ry="10" style="stroke:#222222;stroke-width:1;"/><g id="running"><rect fill="#F1F1F1" height="50" rx="4" ry="4" style="stroke:#181818;stroke-width:0.5;" width="70.1655" x="214.5" y="128.2969"/><line style="stroke:#181818;stroke-width:0.5;" x1="214.5" x2="284.6655" y1="153.4297" y2="153.4297"/><text fill="#000000" font-family="DejaVu Sans" font-size="13" lengthAdjust="spacing" textLength="50.1655" x="224.5" y="145.3638">running</text></g><g id="completed"><rect fill="#F1F1F1" height="50" rx="4" ry="4" style="stroke:#181818;stroke-width:0.5;" width="88.9736" x="6" y="248.2969"/><line style="stroke:#181818;stroke-width:0.5;" x1="6" x2="94.9736" y1="273.4297" y2="273.4297"/><text fill="#000000" font-family="DejaVu Sans" font-size="13" lengthAdjust="spacing" textLength="68.9736" x="16" y="265.3638">completed</text></g><g id="partial"><rect fill="#F1F1F1" height="50" rx="4" ry="4" style="stroke:#181818;stroke-width:0.5;" width="61.8501" x="191.5" y="248.2969"/><line style="stroke:#181818;stroke-width:0.5;" x1="191.5" x2="253.3501" y1="273.4297" y2="273.4297"/><text fill="#000000" font-family="DejaVu Sans" font-size="13" lengthAdjust="spacing" textLength="41.8501" x="201.5" y="265.3638">partial</text></g><g id="failed"><rect fill="#F1F1F1" height="50" rx="4" ry="4" style="stroke:#181818;stroke-width:0.5;" width="56.0166" x="400.5" y="248.2969"/><line style="stroke:#181818;stroke-width:0.5;" x1="400.5" x2="456.5166" y1="273.4297" y2="273.4297"/><text fill="#000000" font-family="DejaVu Sans" font-size="13" lengthAdjust="spacing" textLength="36.0166" x="410.5" y="265.3638">failed</text></g><ellipse cx="242.5" cy="346.2969" fill="none" rx="11" ry="11" style="stroke:#222222;stroke-width:1;"/><ellipse cx="242.5" cy="346.2969" fill="#222222" rx="6" ry="6" style="stroke:#222222;stroke-width:1;"/><g class="link" data-entity-1=".start." data-entity-2="running" data-uid="lnk4" id="link_.start._running"><polygon fill="#444444" points="249.5,127.9416,253.5,118.9416,249.5,122.9416,245.5,118.9416,249.5,127.9416" style="stroke:#444444;stroke-width:1;"/><path d="M249.5,73.3326 C249.5,86.851 249.5,104.146 249.5,121.9416" fill="none" style="stroke:#444444;stroke-width:1;"/><text fill="#000000" font-family="DejaVu Sans" font-size="13" lengthAdjust="spacing" textLength="103.3081" x="251.5" y="105.3638">ingest_movies()</text></g><g class="link" data-entity-1="running" data-entity-2="completed" data-uid="lnk6" id="link_running_completed"><polygon fill="#444444" points="44.0222,248.0241,46.4348,238.4753,43.1726,243.0968,38.5511,239.8346,44.0222,248.0241" style="stroke:#444444;stroke-width:1;"/><path d="M214.313,156.6971 C163.3314,160.9811 72.7869,171.8925 52.5,196.2969 C40.7719,210.4054 40.1706,225.6861 43.0027,242.1113" fill="none" style="stroke:#444444;stroke-width:1;"/><text fill="#000000" font-family="DejaVu Sans" font-size="13" lengthAdjust="spacing" textLength="93.939" x="54.5" y="210.3638">&#1074;&#1089;&#1077; &#1089;&#1090;&#1088;&#1072;&#1085;&#1080;&#1094;&#1099;</text><text fill="#000000" font-family="DejaVu Sans" font-size="13" lengthAdjust="spacing" textLength="82.4624" x="60.2383" y="225.4966">&#1086;&#1073;&#1088;&#1072;&#1073;&#1086;&#1090;&#1072;&#1085;&#1099;</text></g><g class="link" data-entity-1="running" data-entity-2="partial" data-uid="lnk8" id="link_running_partial"><polygon fill="#444444" points="191.2432,259.8128,185.2106,252.0277,186.8394,257.445,181.4221,259.0738,191.2432,259.8128" style="stroke:#444444;stroke-width:1;"/><path d="M214.3862,160.8256 C194.326,166.5486 170.785,177.0965 158.5,196.2969 C150.3558,209.0255 151.3215,216.9997 158.5,230.2969 C165.571,243.3949 173.4204,250.2299 185.9587,256.9714" fill="none" style="stroke:#444444;stroke-width:1;"/><text fill="#000000" font-family="DejaVu Sans" font-size="13" lengthAdjust="spacing" textLength="121.0054" x="178.9241" y="210.3638">&#1087;&#1088;&#1077;&#1088;&#1074;&#1072;&#1085;&#1086; (&#1083;&#1080;&#1084;&#1080;&#1090;,</text><text fill="#000000" font-family="DejaVu Sans" font-size="13" lengthAdjust="spacing" textLength="157.8535" x="160.5" y="225.4966">&#1089;&#1077;&#1090;&#1100;), &#1095;&#1072;&#1089;&#1090;&#1100; &#1089;&#1086;&#1093;&#1088;&#1072;&#1085;&#1077;&#1085;&#1072;</text></g><g class="link" data-entity-1="running" data-entity-2="failed" data-uid="lnk10" id="link_running_failed"><polygon fill="#444444" points="449.4157,248.0046,457.8442,242.9095,452.2753,243.9031,451.2817,238.3341,449.4157,248.0046" style="stroke:#444444;stroke-width:1;"/><path d="M284.5111,156.1703 C337.9737,159.8449 436.0366,170.0663 457.5,196.2969 C469.7524,211.2706 464.017,227.0617 452.8472,243.0828" fill="none" style="stroke:#444444;stroke-width:1;"/><text fill="#000000" font-family="DejaVu Sans" font-size="13" lengthAdjust="spacing" textLength="81.0786" x="464.5" y="210.3638">&#1086;&#1096;&#1080;&#1073;&#1082;&#1072; 401</text><text fill="#000000" font-family="DejaVu Sans" font-size="13" lengthAdjust="spacing" textLength="48.4136" x="480.8325" y="225.4966">&#1080;&#1083;&#1080; &#1041;&#1044;</text></g><g class="link" data-entity-1="partial" data-entity-2="running" data-uid="lnk11" id="link_partial_running"><polygon fill="#444444" points="284.7069,166.6409,291.0031,174.2144,289.1893,168.8562,294.5475,167.0424,284.7069,166.6409" style="stroke:#444444;stroke-width:1;"/><path d="M253.624,267.8974 C276.1159,262.9132 304.9941,252.3851 319.5,230.2969 C327.795,217.666 326.9452,209.4466 319.5,196.2969 C311.8888,182.8541 303.4477,175.9028 290.0858,169.2993" fill="none" style="stroke:#444444;stroke-width:1;"/><text fill="#000000" font-family="DejaVu Sans" font-size="13" lengthAdjust="spacing" textLength="125.3091" x="326.5" y="210.3638">&#1087;&#1086;&#1074;&#1090;&#1086;&#1088;&#1085;&#1099;&#1081; &#1079;&#1072;&#1087;&#1091;&#1089;&#1082;</text><text fill="#000000" font-family="DejaVu Sans" font-size="13" lengthAdjust="spacing" textLength="104.7554" x="336.7769" y="225.4966">(&#1087;&#1088;&#1086;&#1076;&#1086;&#1083;&#1078;&#1077;&#1085;&#1080;&#1077;)</text></g><g class="link" data-entity-1="completed" data-entity-2=".end." data-uid="lnk13" id="link_completed_.end."><polygon fill="#444444" points="231.1709,342.0485,224.1485,335.1431,226.4893,340.2929,221.3395,342.6337,231.1709,342.0485" style="stroke:#444444;stroke-width:1;"/><path d="M95.0313,290.9961 C139.5643,307.696 199.4587,330.1564 225.553,339.9417" fill="none" style="stroke:#444444;stroke-width:1;"/></g><g class="link" data-entity-1="failed" data-entity-2=".end." data-uid="lnk14" id="link_failed_.end."><polygon fill="#444444" points="253.8269,341.9123,263.664,342.3936,258.4897,340.1073,260.776,334.9331,253.8269,341.9123" style="stroke:#444444;stroke-width:1;"/><path d="M400.2506,285.2321 C358.5836,301.3613 288.0867,328.6504 259.4223,339.7463" fill="none" style="stroke:#444444;stroke-width:1;"/></g><!--SRC=[LP3FJi9048VlVOhnHWqOJJnvy4Mi8GHMiybs8RGrySQVY2PmCJ4-Hm6h5QHzXPatuhS5OdgOJNUw-NxVp9csNPFq5BMZ-Dce2vs4nejrR1Jn9-VymplEK3kPyo_93AqDRmdzbDSoaYc-DfmJZbGcQ6wvu3MdtjtvFRLQjpHChDNsaMu8fuhYTjX_qYfg-DxfZtlLxOS3esBLmpjUoPWpah5CP0JYZdEPoJom82-hpfABAWjIDSgWCunrnpX6YOSPQbK12cf0BES_e2RDmBe0q1T-a-GLuYvgWKHmNuwPRkYqHd_eQ7CGBEGDiAMRcQulhs2MEppnEtzu9udwy5p2VWNh0lp3CgiTbZ95x2QmZKgvu2_Kbh-h_9mpt_jVZIDYhTvHv7ZT0m00]--></g></svg>