<svg xmlns="http://www.w3.org/2000/svg" xmlns:xlink="http://www.w3.org/1999/xlink" contentStyleType="text/css" data-diagram-type="STATE" height="591px" preserveAspectRatio="none" style="width:424px;height:591px;background:#FFFFFF;" version="1.1" viewBox="0 0 424 591" width="424px" zoomAndPan="magnify"><title>&#1046;&#1080;&#1079;&#1085;&#1077;&#1085;&#1085;&#1099;&#1081; &#1094;&#1080;&#1082;&#1083; &#1076;&#1072;&#1085;&#1085;&#1099;&#1093; &#1087;&#1086;&#1083;&#1100;&#1079;&#1086;&#1074;&#1072;&#1090;&#1077;&#1083;&#1103;</title><defs/><g><g class="title" data-source-line="2"><text fill="#000000" font-family="DejaVu Sans" font-size="14" font-weight="bold" lengthAdjust="spacing" textLength="323.7295" x="10" y="22.9951">&#1046;&#1080;&#1079;&#1085;&#1077;&#1085;&#1085;&#1099;&#1081; &#1094;&#1080;&#1082;&#1083; &#1076;&#1072;&#1085;&#1085;&#1099;&#1093; &#1087;&#1086;&#1083;&#1100;&#1079;&#1086;&#1074;&#1072;&#1090;&#1077;&#1083;&#1103;</text></g><ellipse cx="233.6147" cy="59.2969" fill="#222222" rx="10" ry="10" style="stroke:#222222;stroke-width:1;"/><g id="unregistered"><rect fill="#F1F1F1" height="50" rx="4" ry="4" style="stroke:#181818;stroke-width:0.5;" width="103.1479" x="182.1147" y="128.2969"/><line style="stroke:#181818;stroke-width:0.5;" x1="182.1147" x2="285.2627" y1="153.4297" y2="153.4297"/><text fill="#000000" font-family="DejaVu Sans" font-size="13" lengthAdjust="spacing" textLength="83.1479" x="192.1147" y="145.3638">unregistered</text></g><g id="consented"><rect fill="#F1F1F1" height="50" rx="4" ry="4" style="stroke:#181818;stroke-width:0.5;" width="87.6978" x="189.6147" y="233.2969"/><line style="stroke:#181818;stroke-width:0.5;" x1="189.6147" x2="277.3125" y1="258.4297" y2="258.4297"/><text fill="#000000" font-family="DejaVu Sans" font-size="13" lengthAdjust="spacing" textLength="67.6978" x="199.6147" y="250.3638">consented</text></g><g id="active"><rect fill="#F1F1F1" height="50" rx="4" ry="4" style="stroke:#181818;stroke-width:0.5;" width="59.5142" x="65.6147" y="338.2969"/><line style="stroke:#181818;stroke-width:0.5;" x1="65.6147" x2="125.1289" y1="363.4297" y2="363.4297"/><text fill="#000000" font-family="DejaVu Sans" font-size="13" lengthAdjust="spacing" textLength="39.5142" x="75.6147" y="355.3638">active</text></g><g id="deleted"><rect fill="#F1F1F1" height="50" rx="4" ry="4" style="stroke:#181818;stroke-width:0.5;" width="69.207" x="180.1147" y="443.2969"/><line style="stroke:#181818;stroke-width:0.5;" x1="180.1147" x2="249.3218" y1="468.4297" y2="468.4297"/><text fill="#000000" font-family="DejaVu Sans" font-size="13" lengthAdjust="spacing" textLength="49.207" x="190.1147" y="460.3638">deleted</text></g><ellipse cx="214.6147" cy="574.2969" fill="none" rx="11" ry="11" style="stroke:#222222;stroke-width:1;"/><ellipse cx="214.6147" cy="574.2969" fill="#222222" rx="6" ry="6" style="stroke:#222222;stroke-width:1;"/><g class="link" data-entity-1=".start." data-entity-2="unregistered" data-uid="lnk4" id="link_.start._unregistered"><polygon fill="#444444" points="233.6147,127.9416,237.6147,118.9416,233.6147,122.9416,229.6147,118.9416,233.6147,127.9416" style="stroke:#444444;stroke-width:1;"/><path d="M233.6147,73.3326 C233.6147,86.851 233.6147,104.146 233.6147,121.9416" fill="none" style="stroke:#444444;stroke-width:1;"/><text fill="#000000" font-family="DejaVu Sans" font-size="13" lengthAdjust="spacing" textLength="94.3008" x="235.6147" y="105.3638">&#1087;&#1077;&#1088;&#1074;&#1099;&#1081; &#1074;&#1080;&#1079;&#1080;&#1090;</text></g><g class="link" data-entity-1="unregistered" data-entity-2="consented" data-uid="lnk6" id="link_unregistered_consented"><polygon fill="#444444" points="233.6147,232.9424,237.6147,223.9424,233.6147,227.9424,229.6147,223.9424,233.6147,232.9424" style="stroke:#444444;stroke-width:1;"/><path d="M233.6147,178.4458 C233.6147,194.8569 233.6147,210.4879 233.6147,226.9424" fill="none" style="stroke:#444444;stroke-width:1;"/><text fill="#000000" font-family="DejaVu Sans" font-size="13" lengthAdjust="spacing" textLength="88.3784" x="235.6147" y="210.3638">save_consent</text></g><g class="link" data-entity-1="consented" data-entity-2="active" data-uid="lnk8" id="link_consented_active"><polygon fill="#444444" points="124.4153,338.2724,133.9152,335.6737,128.2866,335.1081,128.8522,329.4796,124.4153,338.2724" style="stroke:#444444;stroke-width:1;"/><path d="M196.8812,283.4634 C188.4872,289.183 179.669,295.3516 171.6147,301.2969 C155.6886,313.0528 143.0908,323.0074 129.0609,334.4752" fill="none" style="stroke:#444444;stroke-width:1;"/><text fill="#000000" font-family="DejaVu Sans" font-size="13" lengthAdjust="spacing" textLength="108.1196" x="173.6147" y="315.3638">&#1075;&#1086;&#1088;&#1086;&#1076; &#1089;&#1086;&#1093;&#1088;&#1072;&#1085;&#1105;&#1085;</text></g><g class="link" data-entity-1="active" data-entity-2="active" data-uid="lnk9" id="link_active_active"><polygon fill="#444444" points="126.082,373.0445,135.1224,376.9523,131.0817,372.9934,135.0407,368.9527,126.082,373.0445" style="stroke:#444444;stroke-width:1;"/><path d="M126.082,353.5493 C135.8628,353.6492 143.6147,356.8984 143.6147,363.2969 C143.6147,369.6953 141.8625,372.8832 132.0817,372.9832" fill="none" style="stroke:#444444;stroke-width:1;"/><text fill="#000000" font-family="DejaVu Sans" font-size="13" lengthAdjust="spacing" textLength="114.4102" x="145.6147" y="360.3638">&#1086;&#1094;&#1077;&#1085;&#1082;&#1080;, &#1074;&#1099;&#1073;&#1086;&#1088;&#1099;,</text><text fill="#000000" font-family="DejaVu Sans" font-size="13" lengthAdjust="spacing" textLength="46.3379" x="179.6509" y="375.4966">&#1089;&#1077;&#1089;&#1089;&#1080;&#1080;</text></g><g class="link" data-entity-1="active" data-entity-2="deleted" data-uid="lnk11" id="link_active_deleted"><polygon fill="#444444" points="186.477,442.9424,182.2898,434.0279,182.6965,439.6701,177.0542,440.0768,186.477,442.9424" style="stroke:#444444;stroke-width:1;"/><path d="M123.515,388.4458 C142.4753,404.8569 162.9299,422.5613 181.9404,439.0157" fill="none" style="stroke:#444444;stroke-width:1;"/><text fill="#000000" font-family="DejaVu Sans" font-size="13" lengthAdjust="spacing" textLength="111.5918" x="168.6147" y="420.3638">delete_user_data</text></g><g class="link" data-entity-1="consented" data-entity-2="deleted" data-uid="lnk12" id="link_consented_deleted"><polygon fill="#444444" points="249.332,454.8371,259.1697,454.3686,253.7993,452.5914,255.5765,447.2209,249.332,454.8371" style="stroke:#444444;stroke-width:1;"/><path d="M270.6308,283.6365 C275.8929,288.8071 280.5502,294.7204 283.6147,301.2969 C306.8925,351.2507 310.6151,377.253 283.6147,425.2969 C276.1257,438.6227 267.8659,445.52 254.6927,452.1422" fill="none" style="stroke:#444444;stroke-width:1;"/><text fill="#000000" font-family="DejaVu Sans" font-size="13" lengthAdjust="spacing" textLength="111.5918" x="303.6147" y="367.8638">delete_user_data</text></g><g class="link" data-entity-1="deleted" data-entity-2=".end." data-uid="lnk14" id="link_deleted_.end."><polygon fill="#444444" points="214.6147,563.1757,218.6147,554.1757,214.6147,558.1757,210.6147,554.1757,214.6147,563.1757" style="stroke:#444444;stroke-width:1;"/><path d="M214.6147,493.386 C214.6147,515.3037 214.6147,540.6752 214.6147,557.1757" fill="none" style="stroke:#444444;stroke-width:1;"/><text fill="#000000" font-family="DejaVu Sans" font-size="13" lengthAdjust="spacing" textLength="111.2744" x="216.6147" y="525.3638">&#1079;&#1072;&#1087;&#1080;&#1089;&#1080; &#1091;&#1076;&#1072;&#1083;&#1077;&#1085;&#1099;</text><text fill="#000000" font-family="DejaVu Sans" font-size="13" lengthAdjust="spacing" textLength="64.2256" x="240.1392" y="540.4966">&#1082;&#1072;&#1089;&#1082;&#1072;&#1076;&#1085;&#1086;</text></g><!--SRC=[VL11JiD03Bpd5UQAMXx0WOzG54M9XIA5HKesbRZHed894kB2Eq9frD0eso-CVuGtAQBbm64jhpqp7liiDN5M9anXOHyolaZBkoomgSsOy8uMM_HezFLIuOlaMKixT8GDwh4gAy8U3fsyADXXZLgMIkdaDRW-lw7fz8fAa_DjMbZEEQ5BZs_a4Uj1KWb-IYlBu0JcUV6zATZOWLH4SmuFXU2tuM5HRDCvU-5FE1Lss90iD5tfHstA6_hW03h5Ert8RxT3Ew71q8TNa6eoCwhGo49ZY_QOdN36ewKn2yk2yp29RFJ7rZ_0dvQ7-IEfbQqwtUiPT1x9qt3VpdkJQcRKNwqDZLhluRu1]--></g></svg>