<svg xmlns="http://www.w3.org/2000/svg" xmlns:xlink="http://www.w3.org/1999/xlink" contentStyleType="text/css" data-diagram-type="ACTIVITY" height="894px" preserveAspectRatio="none" style="width:826px;height:894px;background:#FFFFFF;" version="1.1" viewBox="0 0 826 894" width="826px" zoomAndPan="magnify"><title>&#1047;&#1072;&#1075;&#1088;&#1091;&#1079;&#1082;&#1072; &#1082;&#1072;&#1090;&#1072;&#1083;&#1086;&#1075;&#1072; &#1080;&#1079; TMDB</title><defs/><g><g class="title" data-source-line="2"><text fill="#000000" font-family="DejaVu Sans" font-size="14" font-weight="bold" lengthAdjust="spacing" textLength="224.4238" x="299.7349" y="32.9951">&#1047;&#1072;&#1075;&#1088;&#1091;&#1079;&#1082;&#1072; &#1082;&#1072;&#1090;&#1072;&#1083;&#1086;&#1075;&#1072; &#1080;&#1079; TMDB</text></g><ellipse cx="385.9468" cy="57.2969" fill="#222222" rx="10" ry="10" style="stroke:#222222;stroke-width:1;"/><rect fill="#F1F1F1" height="35.1328" rx="4" ry="4" style="stroke:#181818;stroke-width:0.5;" width="284.5259" x="243.6838" y="87.2969"/><text fill="#000000" font-family="DejaVu Sans" font-size="13" lengthAdjust="spacing" textLength="264.5259" x="253.6838" y="109.3638">&#1057;&#1086;&#1079;&#1076;&#1072;&#1090;&#1100; &#1079;&#1072;&#1087;&#1080;&#1089;&#1100; catalog_loads (running)</text><rect fill="#F1F1F1" height="50.2656" rx="4" ry="4" style="stroke:#181818;stroke-width:0.5;" width="229.9424" x="270.9756" y="142.4297"/><text fill="#000000" font-family="DejaVu Sans" font-size="13" lengthAdjust="spacing" textLength="209.9424" x="280.9756" y="164.4966">&#1047;&#1072;&#1075;&#1088;&#1091;&#1079;&#1080;&#1090;&#1100; &#1089;&#1087;&#1088;&#1072;&#1074;&#1086;&#1095;&#1085;&#1080;&#1082; &#1078;&#1072;&#1085;&#1088;&#1086;&#1074;</text><text fill="#000000" font-family="DejaVu Sans" font-size="13" lengthAdjust="spacing" textLength="115.7495" x="280.9756" y="179.6294">(genre/movie/list)</text><rect fill="#F1F1F1" height="35.1328" rx="4" ry="4" style="stroke:#181818;stroke-width:0.5;" width="205.8975" x="282.998" y="256.6953"/><text fill="#000000" font-family="DejaVu Sans" font-size="13" lengthAdjust="spacing" textLength="185.8975" x="292.998" y="278.7622">discover/movie, &#1089;&#1090;&#1088;&#1072;&#1085;&#1080;&#1094;&#1072; N</text><rect fill="#F1F1F1" height="50.2656" rx="4" ry="4" style="stroke:#181818;stroke-width:0.5;" width="265.521" x="253.1863" y="366.9609"/><text fill="#000000" font-family="DejaVu Sans" font-size="13" lengthAdjust="spacing" textLength="245.521" x="263.1863" y="389.0278">movie/{id} + credits + release_dates</text><text fill="#000000" font-family="DejaVu Sans" font-size="13" lengthAdjust="spacing" textLength="144.4854" x="263.1863" y="404.1606">(append_to_response)</text><polygon fill="#F1F1F1" points="83.772,437.2266,160.6548,437.2266,172.6548,449.2266,160.6548,461.2266,83.772,461.2266,71.772,449.2266,83.772,437.2266" style="stroke:#181818;stroke-width:0.5;"/><text fill="#000000" font-family="DejaVu Sans" font-size="13" lengthAdjust="spacing" textLength="16.9546" x="126.2134" y="473.2935">&#1076;&#1072;</text><text fill="#000000" font-family="DejaVu Sans" font-size="13" lengthAdjust="spacing" textLength="76.8828" x="83.772" y="453.7271">&#1054;&#1090;&#1074;&#1077;&#1090; 429?</text><rect fill="#F1F1F1" height="50.2656" rx="4" ry="4" style="stroke:#181818;stroke-width:0.5;" width="222.4268" x="11" y="496.3594"/><text fill="#000000" font-family="DejaVu Sans" font-size="13" lengthAdjust="spacing" textLength="202.4268" x="21" y="518.4263">&#1055;&#1072;&#1091;&#1079;&#1072; &#1089; &#1091;&#1074;&#1077;&#1083;&#1080;&#1095;&#1077;&#1085;&#1080;&#1077;&#1084;, &#1087;&#1086;&#1074;&#1090;&#1086;&#1088;</text><text fill="#000000" font-family="DejaVu Sans" font-size="13" lengthAdjust="spacing" textLength="110.7158" x="21" y="533.5591">(&#1085;&#1077; &#1073;&#1086;&#1083;&#1077;&#1077; 5 &#1088;&#1072;&#1079;)</text><polygon fill="#F1F1F1" points="324.6729,437.2266,401.5557,437.2266,413.5557,449.2266,401.5557,461.2266,324.6729,461.2266,312.6729,449.2266,324.6729,437.2266" style="stroke:#181818;stroke-width:0.5;"/><text fill="#000000" font-family="DejaVu Sans" font-size="13" lengthAdjust="spacing" textLength="16.9546" x="367.1143" y="473.2935">&#1076;&#1072;</text><text fill="#000000" font-family="DejaVu Sans" font-size="13" lengthAdjust="spacing" textLength="76.8828" x="324.6729" y="453.7271">&#1054;&#1090;&#1074;&#1077;&#1090; 404?</text><text fill="#000000" font-family="DejaVu Sans" font-size="13" lengthAdjust="spacing" textLength="24.813" x="413.5557" y="446.1606">200</text><rect fill="#F1F1F1" height="35.1328" rx="4" ry="4" style="stroke:#181818;stroke-width:0.5;" width="239.375" x="243.4268" y="496.3594"/><text fill="#000000" font-family="DejaVu Sans" font-size="13" lengthAdjust="spacing" textLength="219.375" x="253.4268" y="518.4263">&#1055;&#1088;&#1086;&#1087;&#1091;&#1089;&#1090;&#1080;&#1090;&#1100;, &#1079;&#1072;&#1087;&#1080;&#1089;&#1072;&#1090;&#1100; &#1074; &#1078;&#1091;&#1088;&#1085;&#1072;&#1083;</text><rect fill="#F1F1F1" height="50.2656" rx="4" ry="4" style="stroke:#181818;stroke-width:0.5;" width="268.0918" x="502.8018" y="491.793"/><text fill="#000000" font-family="DejaVu Sans" font-size="13" lengthAdjust="spacing" textLength="191.8833" x="512.8018" y="513.8599">&#1053;&#1086;&#1088;&#1084;&#1072;&#1083;&#1080;&#1079;&#1072;&#1094;&#1080;&#1103;: &#1075;&#1086;&#1076;, &#1078;&#1072;&#1085;&#1088;&#1099;,</text><text fill="#000000" font-family="DejaVu Sans" font-size="13" lengthAdjust="spacing" textLength="248.0918" x="512.8018" y="528.9927">10 &#1072;&#1082;&#1090;&#1105;&#1088;&#1086;&#1074;, &#1074;&#1086;&#1079;&#1088;&#1072;&#1089;&#1090;&#1085;&#1072;&#1103; &#1084;&#1072;&#1088;&#1082;&#1080;&#1088;&#1086;&#1074;&#1082;&#1072;</text><rect fill="#F1F1F1" height="35.1328" rx="4" ry="4" style="stroke:#181818;stroke-width:0.5;" width="238.2451" x="266.8242" y="311.8281"/><text fill="#000000" font-family="DejaVu Sans" font-size="13" lengthAdjust="spacing" textLength="218.2451" x="276.8242" y="333.895">&#1044;&#1083;&#1103; &#1082;&#1072;&#1078;&#1076;&#1086;&#1075;&#1086; &#1092;&#1080;&#1083;&#1100;&#1084;&#1072; &#1089;&#1090;&#1088;&#1072;&#1085;&#1080;&#1094;&#1099;</text><polygon fill="#F1F1F1" points="276.4116,586.625,495.4819,586.625,507.4819,598.625,495.4819,610.625,276.4116,610.625,264.4116,598.625,276.4116,586.625" style="stroke:#181818;stroke-width:0.5;"/><text fill="#000000" font-family="DejaVu Sans" font-size="13" lengthAdjust="spacing" textLength="219.0703" x="276.4116" y="603.1255">&#1045;&#1089;&#1090;&#1100; &#1077;&#1097;&#1105; &#1092;&#1080;&#1083;&#1100;&#1084;&#1099; &#1085;&#1072; &#1089;&#1090;&#1088;&#1072;&#1085;&#1080;&#1094;&#1077;?</text><text fill="#000000" font-family="DejaVu Sans" font-size="13" lengthAdjust="spacing" textLength="16.9546" x="507.4819" y="595.5591">&#1076;&#1072;</text><rect fill="#F1F1F1" height="50.2656" rx="4" ry="4" style="stroke:#181818;stroke-width:0.5;" width="229.0347" x="271.4294" y="630.625"/><text fill="#000000" font-family="DejaVu Sans" font-size="13" lengthAdjust="spacing" textLength="209.0347" x="281.4294" y="652.6919">&#1058;&#1088;&#1072;&#1085;&#1079;&#1072;&#1082;&#1094;&#1080;&#1103;: UPSERT &#1092;&#1080;&#1083;&#1100;&#1084;&#1086;&#1074;,</text><text fill="#000000" font-family="DejaVu Sans" font-size="13" lengthAdjust="spacing" textLength="169.8188" x="281.4294" y="667.8247">&#1078;&#1072;&#1085;&#1088;&#1086;&#1074;, &#1072;&#1082;&#1090;&#1105;&#1088;&#1086;&#1074;, &#1089;&#1074;&#1103;&#1079;&#1077;&#1081;</text><rect fill="#F1F1F1" height="35.1328" rx="4" ry="4" style="stroke:#181818;stroke-width:0.5;" width="159.6738" x="306.1099" y="700.8906"/><text fill="#000000" font-family="DejaVu Sans" font-size="13" lengthAdjust="spacing" textLength="139.6738" x="316.1099" y="722.9575">&#1057;&#1086;&#1093;&#1088;&#1072;&#1085;&#1080;&#1090;&#1100; last_page</text><polygon fill="#F1F1F1" points="385.9468,212.6953,397.9468,224.6953,385.9468,236.6953,373.9468,224.6953,385.9468,212.6953" style="stroke:#181818;stroke-width:0.5;"/><polygon fill="#F1F1F1" points="291.4397,756.0234,480.4539,756.0234,492.4539,771.1563,480.4539,786.2891,291.4397,786.2891,279.4397,771.1563,291.4397,756.0234" style="stroke:#181818;stroke-width:0.5;"/><text fill="#000000" font-family="DejaVu Sans" font-size="13" lengthAdjust="spacing" textLength="182.6729" x="291.4397" y="768.0903">&#1045;&#1089;&#1090;&#1100; &#1089;&#1083;&#1077;&#1076;&#1091;&#1102;&#1097;&#1072;&#1103; &#1089;&#1090;&#1088;&#1072;&#1085;&#1080;&#1094;&#1072;</text><text fill="#000000" font-family="DejaVu Sans" font-size="13" lengthAdjust="spacing" textLength="189.0142" x="291.4397" y="783.2231">&#1080; &#1085;&#1077; &#1076;&#1086;&#1089;&#1090;&#1080;&#1075;&#1085;&#1091;&#1090; max_pages?</text><text fill="#000000" font-family="DejaVu Sans" font-size="13" lengthAdjust="spacing" textLength="16.9546" x="492.4539" y="768.0903">&#1076;&#1072;</text><rect fill="#F1F1F1" height="35.1328" rx="4" ry="4" style="stroke:#181818;stroke-width:0.5;" width="197.1821" x="287.3557" y="806.2891"/><text fill="#000000" font-family="DejaVu Sans" font-size="13" lengthAdjust="spacing" textLength="177.1821" x="297.3557" y="828.356">catalog_loads &#8594; completed</text><ellipse cx="385.9468" cy="872.4219" fill="none" rx="11" ry="11" style="stroke:#222222;stroke-width:1;"/><ellipse cx="385.9468" cy="872.4219" fill="#222222" rx="6" ry="6" style="stroke:#222222;stroke-width:1;"/><line style="stroke:#444444;stroke-width:1;" x1="385.9468" x2="385.9468" y1="67.2969" y2="87.2969"/><polygon fill="#444444" points="381.9468,77.2969,385.9468,87.2969,389.9468,77.2969,385.9468,81.2969" style="stroke:#444444;stroke-width:1;"/><line style="stroke:#444444;stroke-width:1;" x1="385.9468" x2="385.9468" y1="122.4297" y2="142.4297"/><polygon fill="#444444" points="381.9468,132.4297,385.9468,142.4297,389.9468,132.4297,385.9468,136.4297" style="stroke:#444444;stroke-width:1;"/><line style="stroke:#444444;stroke-width:1;" x1="122.2134" x2="122.2134" y1="461.2266" y2="496.3594"/><polygon fill="#444444" points="118.2134,486.3594,122.2134,496.3594,126.2134,486.3594,122.2134,490.3594" style="stroke:#444444;stroke-width:1;"/><line style="stroke:#444444;stroke-width:1;" x1="122.2134" x2="122.2134" y1="546.625" y2="566.625"/><polygon fill="#444444" points="118.2134,556.625,122.2134,566.625,126.2134,556.625,122.2134,560.625" style="stroke:#444444;stroke-width:1;"/><line style="stroke:#444444;stroke-width:1;" x1="363.1143" x2="363.1143" y1="461.2266" y2="496.3594"/><polygon fill="#444444" points="359.1143,486.3594,363.1143,496.3594,367.1143,486.3594,363.1143,490.3594" style="stroke:#444444;stroke-width:1;"/><line style="stroke:#444444;stroke-width:1;" x1="363.1143" x2="363.1143" y1="531.4922" y2="566.625"/><polygon fill="#444444" points="359.1143,556.625,363.1143,566.625,367.1143,556.625,363.1143,560.625" style="stroke:#444444;stroke-width:1;"/><line style="stroke:#444444;stroke-width:1;" x1="172.6548" x2="312.6729" y1="449.2266" y2="449.2266"/><polygon fill="#444444" points="302.6729,445.2266,312.6729,449.2266,302.6729,453.2266,306.6729,449.2266" style="stroke:#444444;stroke-width:1;"/><line style="stroke:#444444;stroke-width:1;" x1="385.9468" x2="385.9468" y1="417.2266" y2="422.2266"/><line style="stroke:#444444;stroke-width:1;" x1="385.9468" x2="122.2134" y1="422.2266" y2="422.2266"/><line style="stroke:#444444;stroke-width:1;" x1="122.2134" x2="122.2134" y1="422.2266" y2="437.2266"/><polygon fill="#444444" points="118.2134,427.2266,122.2134,437.2266,126.2134,427.2266,122.2134,431.2266" style="stroke:#444444;stroke-width:1;"/><line style="stroke:#444444;stroke-width:1;" x1="413.5557" x2="636.8477" y1="449.2266" y2="449.2266"/><line style="stroke:#444444;stroke-width:1;" x1="636.8477" x2="636.8477" y1="449.2266" y2="491.793"/><polygon fill="#444444" points="632.8477,481.793,636.8477,491.793,640.8477,481.793,636.8477,485.793" style="stroke:#444444;stroke-width:1;"/><line style="stroke:#444444;stroke-width:1;" x1="636.8477" x2="636.8477" y1="542.0586" y2="566.625"/><polygon fill="#444444" points="632.8477,556.625,636.8477,566.625,640.8477,556.625,636.8477,560.625" style="stroke:#444444;stroke-width:1;"/><line style="stroke:#444444;stroke-width:1;" x1="122.2134" x2="636.8477" y1="566.625" y2="566.625"/><line style="stroke:#444444;stroke-width:1;" x1="385.9468" x2="385.9468" y1="346.9609" y2="366.9609"/><polygon fill="#444444" points="381.9468,356.9609,385.9468,366.9609,389.9468,356.9609,385.9468,360.9609" style="stroke:#444444;stroke-width:1;"/><line style="stroke:#444444;stroke-width:1;" x1="507.4819" x2="782.8936" y1="598.625" y2="598.625"/><polygon fill="#444444" points="778.8936,481.5098,782.8936,471.5098,786.8936,481.5098,782.8936,477.5098" style="stroke:#444444;stroke-width:1;"/><line style="stroke:#444444;stroke-width:1;" x1="782.8936" x2="782.8936" y1="329.3945" y2="598.625"/><line style="stroke:#444444;stroke-width:1;" x1="782.8936" x2="505.0693" y1="329.3945" y2="329.3945"/><polygon fill="#444444" points="515.0693,325.3945,505.0693,329.3945,515.0693,333.3945,511.0693,329.3945" style="stroke:#444444;stroke-width:1;"/><line style="stroke:#444444;stroke-width:1;" x1="385.9468" x2="385.9468" y1="566.625" y2="586.625"/><polygon fill="#444444" points="381.9468,576.625,385.9468,586.625,389.9468,576.625,385.9468,580.625" style="stroke:#444444;stroke-width:1;"/><line style="stroke:#444444;stroke-width:1;" x1="385.9468" x2="385.9468" y1="291.8281" y2="311.8281"/><polygon fill="#444444" points="381.9468,301.8281,385.9468,311.8281,389.9468,301.8281,385.9468,305.8281" style="stroke:#444444;stroke-width:1;"/><line style="stroke:#444444;stroke-width:1;" x1="385.9468" x2="385.9468" y1="610.625" y2="630.625"/><polygon fill="#444444" points="381.9468,620.625,385.9468,630.625,389.9468,620.625,385.9468,624.625" style="stroke:#444444;stroke-width:1;"/><line style="stroke:#444444;stroke-width:1;" x1="385.9468" x2="385.9468" y1="680.8906" y2="700.8906"/><polygon fill="#444444" points="381.9468,690.8906,385.9468,700.8906,389.9468,690.8906,385.9468,694.8906" style="stroke:#444444;stroke-width:1;"/><line style="stroke:#444444;stroke-width:1;" x1="385.9468" x2="385.9468" y1="236.6953" y2="256.6953"/><polygon fill="#444444" points="381.9468,246.6953,385.9468,256.6953,389.9468,246.6953,385.9468,250.6953" style="stroke:#444444;stroke-width:1;"/><line style="stroke:#444444;stroke-width:1;" x1="492.4539" x2="800.8936" y1="771.1563" y2="771.1563"/><polygon fill="#444444" points="796.8936,522.9258,800.8936,512.9258,804.8936,522.9258,800.8936,518.9258" style="stroke:#444444;stroke-width:1;"/><line style="stroke:#444444;stroke-width:1;" x1="800.8936" x2="800.8936" y1="224.6953" y2="771.1563"/><line style="stroke:#444444;stroke-width:1;" x1="800.8936" x2="397.9468" y1="224.6953" y2="224.6953"/><polygon fill="#444444" points="407.9468,220.6953,397.9468,224.6953,407.9468,228.6953,403.9468,224.6953" style="stroke:#444444;stroke-width:1;"/><line style="stroke:#444444;stroke-width:1;" x1="385.9468" x2="385.9468" y1="736.0234" y2="756.0234"/><polygon fill="#444444" points="381.9468,746.0234,385.9468,756.0234,389.9468,746.0234,385.9468,750.0234" style="stroke:#444444;stroke-width:1;"/><line style="stroke:#444444;stroke-width:1;" x1="385.9468" x2="385.9468" y1="192.6953" y2="212.6953"/><polygon fill="#444444" points="381.9468,202.6953,385.9468,212.6953,389.9468,202.6953,385.9468,206.6953" style="stroke:#444444;stroke-width:1;"/><line style="stroke:#444444;stroke-width:1;" x1="385.9468" x2="385.9468" y1="786.2891" y2="806.2891"/><polygon fill="#444444" points="381.9468,796.2891,385.9468,806.2891,389.9468,796.2891,385.9468,800.2891" style="stroke:#444444;stroke-width:1;"/><line style="stroke:#444444;stroke-width:1;" x1="385.9468" x2="385.9468" y1="841.4219" y2="861.4219"/><polygon fill="#444444" points="381.9468,851.4219,385.9468,861.4219,389.9468,851.4219,385.9468,855.4219" style="stroke:#444444;stroke-width:1;"/><!--SRC=[TLDDRzD04BtdLmotH4GqLEL0Sa12S0GXABTAaHLlqvKSs_9k2WWXfIqKLQc8Ya2S0C4l26vCGjAcVs7sB_1BUBjEcu-AYxMUcNrlvhtP6p9i16rVK5tfLu6u9TkjeA2b3WJn5-xpgUcO0nxocFjaFsOVmGbF-TG6HZoapKSFxXUKzX9TgF8FP8Oyi7Ncc73iymMFp1v-6fxsWgXP3oBFLrHCsc4emsQfXbkBH2Dtq-pnXUaWdFBKlETpC8s9VoDmZl2Kqwsms1HX8jPQqQuKQu5K6b29Y8Md2qHLNwf6j2kIF5y6870j8A3C8Nf_N4DPNazL_iGJqtC3WcJWnfkIUGlQYJdcCzGl0vYklGwUdFwrzD_GJMeamfTQuPI8G7XAr7rF2uLUlJWMeL_NKJqHAev29KevWDoc8d-3gYbdPfysrk_UAv7U4I72aB7aYi33tw6frSTsGZYX7ZwC84xcvCduh4mG6ze0RMewO4KY8_w5s0JvZEwGcs0uunQ14glybOt_yJlTByo15I9tgRnWyANZALn2JGVKs9Cv3nNNAvKvsbVReTNLpc1HuCd8zAfaXUT1-SfhqorlXRShXByn64vozv5FxQRPSLm_OBF-0H2XCQ1ScVLpraBeo-svuIzs91Qyo9-TgsWxCqVcPC5mqoMBkRes6SIHQYvDbN_EiaFNu6o8vq-UFNowkRW_jkUjS761ozT6WeYfwG4fupyr1uxNPDvTqTj60q_fUkmrnUMkNni5ADRi0KpuO8wSBAkxZqP6bEy6LZtt4xgVuye-jRoNZa0jZLfTVhr_3pzI8sh5WT32h-7rH_4_]--></g></svg>