<svg xmlns="http://www.w3.org/2000/svg" xmlns:xlink="http://www.w3.org/1999/xlink" contentStyleType="text/css" data-diagram-type="DESCRIPTION" height="334px" preserveAspectRatio="none" style="width:653px;height:334px;background:#FFFFFF;" version="1.1" viewBox="0 0 653 334" width="653px" zoomAndPan="magnify"><title>&#1056;&#1072;&#1079;&#1084;&#1077;&#1097;&#1077;&#1085;&#1080;&#1077; &#1084;&#1086;&#1076;&#1091;&#1083;&#1103; &#1076;&#1072;&#1085;&#1085;&#1099;&#1093;</title><defs/><g><g class="title" data-source-line="2"><text fill="#000000" font-family="DejaVu Sans" font-size="14" font-weight="bold" lengthAdjust="spacing" textLength="235.0059" x="199.7471" y="22.9951">&#1056;&#1072;&#1079;&#1084;&#1077;&#1097;&#1077;&#1085;&#1080;&#1077; &#1084;&#1086;&#1076;&#1091;&#1083;&#1103; &#1076;&#1072;&#1085;&#1085;&#1099;&#1093;</text></g><!--cluster ????????? ????????????\n(Docker Compose)--><g class="cluster" data-entity="......... .............n.Docker Compose." data-source-line="3" data-uid="ent0002" id="cluster_......... .............n.Docker Compose."><polygon fill="none" points="14,51.2969,24,41.2969,414,41.2969,414,307.2969,404,317.2969,14,317.2969,14,51.2969" style="stroke:#181818;stroke-width:1;"/><line style="stroke:#181818;stroke-width:1;" x1="404" x2="414" y1="51.2969" y2="41.2969"/><line style="stroke:#181818;stroke-width:1;" x1="14" x2="404" y1="51.2969" y2="51.2969"/><line style="stroke:#181818;stroke-width:1;" x1="404" x2="404" y1="51.2969" y2="317.2969"/><text fill="#000000" font-family="DejaVu Sans" font-size="13" font-weight="bold" lengthAdjust="spacing" textLength="193.5654" x="113.2173" y="66.3638">&#1050;&#1086;&#1084;&#1087;&#1100;&#1102;&#1090;&#1077;&#1088; &#1087;&#1086;&#1083;&#1100;&#1079;&#1086;&#1074;&#1072;&#1090;&#1077;&#1083;&#1103;</text><text fill="#000000" font-family="DejaVu Sans" font-size="13" font-weight="bold" lengthAdjust="spacing" textLength="134.5195" x="142.7402" y="81.4966">(Docker Compose)</text></g><!--cluster ????????? backend--><g class="cluster" data-entity="......... backend" data-source-line="4" data-uid="ent0003" id="cluster_......... backend"><polygon fill="none" points="22,97.2969,32,87.2969,406,87.2969,406,169.2969,396,179.2969,22,179.2969,22,97.2969" style="stroke:#181818;stroke-width:1;"/><line style="stroke:#181818;stroke-width:1;" x1="396" x2="406" y1="97.2969" y2="87.2969"/><line style="stroke:#181818;stroke-width:1;" x1="22" x2="396" y1="97.2969" y2="97.2969"/><line style="stroke:#181818;stroke-width:1;" x1="396" x2="396" y1="97.2969" y2="179.2969"/><text fill="#000000" font-family="DejaVu Sans" font-size="13" font-weight="bold" lengthAdjust="spacing" textLength="147.437" x="136.2815" y="112.3638">&#1050;&#1086;&#1085;&#1090;&#1077;&#1081;&#1085;&#1077;&#1088; backend</text></g><!--cluster ??? data/\n(volume)--><g class="cluster" data-entity="... data..n.volume." data-source-line="8" data-uid="ent0006" id="cluster_... data..n.volume."><path d="M115,216.2969 L183.7637,216.2969 A6,6 0 0 1 187.7637,220.2969 L194.7637,252.5625 L233,252.5625 A4,4 0 0 1 237,256.5625 L237,305.2969 A4,4 0 0 1 233,309.2969 L115,309.2969 A4,4 0 0 1 111,305.2969 L111,220.2969 A4,4 0 0 1 115,216.2969" fill="none" style="stroke:#000000;stroke-width:1.5;"/><line style="stroke:#000000;stroke-width:1.5;" x1="111" x2="194.7637" y1="252.5625" y2="252.5625"/><text fill="#000000" font-family="DejaVu Sans" font-size="13" font-weight="bold" lengthAdjust="spacing" textLength="70.7637" x="115" y="230.3638">&#1058;&#1086;&#1084; data/</text><text fill="#000000" font-family="DejaVu Sans" font-size="13" font-weight="bold" lengthAdjust="spacing" textLength="65.3618" x="117.7009" y="245.4966">(volume)</text></g><!--entity tmdb--><g class="entity" data-entity="tmdb" data-source-line="12" data-uid="ent0008" id="entity_tmdb"><path d="M559.1546,264.8224 C563.2865,258.6925 568.2602,258.909 571.9882,265.2384 C575.2484,258.6005 579.4358,257.2 584.7239,263.194 C588.4639,257.5761 593.8019,255.7482 598.1027,262.592 C601.6635,257.6716 606.3417,256.6731 609.8693,262.6281 C614.9432,256.9025 621.6635,258.2558 624.6857,265.0552 C628.3441,260.0842 632.7952,258.7136 636.5052,265.001 C644.8826,267.5344 646.7959,272.385 641.3821,279.5433 C646.6108,286.6012 644.9164,291.0952 637.3522,294.7665 C634.2883,303.2087 629.2643,304.3318 622.7805,298.1816 C619.8074,304.7424 613.9719,305.0622 610.1162,299.0722 C607.6804,306.5823 602.0691,307.8322 597.1582,301.3671 C592.5197,306.6108 587.277,305.0955 585.0718,298.815 C580.7986,304.26 574.6715,303.5767 572.8278,296.4491 C567.9171,301.7261 563.8891,300.7037 560.6195,294.6768 C552.4173,294.4555 547.772,287.9881 553.3167,280.6233 C546.6228,273.1723 550.3042,266.5303 559.1546,264.8224" fill="#F1F1F1" style="stroke:#181818;stroke-width:0.5;"/><text fill="#000000" font-family="DejaVu Sans" font-size="13" lengthAdjust="spacing" textLength="62.7847" x="565.5" y="283.8638">TMDB API</text></g><!--entity om--><g class="entity" data-entity="om" data-source-line="13" data-uid="ent0009" id="entity_om"><path d="M431.8876,266.9701 C434.6877,261.205 438.7693,260.3155 443.3415,265.034 C446.5732,259.1828 450.1836,259.0609 454.3358,264.105 C458.1697,257.7106 462.9247,258.9555 466.4608,264.4096 C470.0342,258.6075 473.9671,257.3691 479.0248,262.7406 C482.5158,258.3595 487.331,258.6327 489.8461,263.8416 C493.7761,258.3714 497.7505,257.8721 501.3139,264.198 C505.0815,259.4418 509.4101,259.4731 512.0099,265.3704 C515.9216,259.2719 520.5132,259.4462 523.6785,266.0558 C531.9428,268.9072 534.1835,274.7326 527.2078,281.1479 C534.2181,286.6828 532.4261,291.6424 525.3994,295.3957 C521.7339,300.4421 516.6776,301.5106 513.0369,295.3683 C510.269,301.4571 506.4586,301.0513 502.4429,296.6256 C499.1215,303.8119 493.7288,303.1694 489.1072,298.0326 C485.4397,302.9478 481.1951,303.5835 477.5938,297.9603 C473.8923,303.1801 470.5464,303.9514 466.6989,298.104 C463.0131,302.613 457.8119,302.7732 455.2381,296.8789 C451.6007,303.5863 445.8516,301.8197 442.6356,296.4396 C438.3192,302.3959 433.33,300.9456 430.2713,295.1198 C422.1851,292.79 419.651,285.3475 426.7219,279.5601 C421.4145,273.0967 424.8169,268.3549 431.8876,266.9701" fill="#F1F1F1" style="stroke:#181818;stroke-width:0.5;"/><text fill="#000000" font-family="DejaVu Sans" font-size="13" lengthAdjust="spacing" textLength="79.6758" x="437" y="283.8638">Open-Meteo</text></g><!--entity d--><g class="entity" data-entity="d" data-source-line="5" data-uid="ent0004" id="entity_d"><rect fill="#F1F1F1" height="38.1328" rx="4" ry="4" style="stroke:#181818;stroke-width:0.5;" width="137.8657" x="30" y="125.7969"/><polygon fill="#F1F1F1" points="150.8657,130.7969,150.8657,144.7969,162.8657,144.7969,162.8657,136.7969,156.8657,130.7969,150.8657,130.7969" style="stroke:#181818;stroke-width:0.5;"/><line style="stroke:#181818;stroke-width:0.5;" x1="156.8657" x2="156.8657" y1="130.7969" y2="136.7969"/><line style="stroke:#181818;stroke-width:0.5;" x1="162.8657" x2="156.8657" y1="136.7969" y2="136.7969"/><text fill="#000000" font-family="DejaVu Sans" font-size="13" lengthAdjust="spacing" textLength="107.8657" x="40" y="150.8638">&#1052;&#1086;&#1076;&#1091;&#1083;&#1100; &#1076;&#1072;&#1085;&#1085;&#1099;&#1093;</text></g><!--entity l--><g class="entity" data-entity="l" data-source-line="6" data-uid="ent0005" id="entity_l"><rect fill="#F1F1F1" height="53.2656" rx="4" ry="4" style="stroke:#181818;stroke-width:0.5;" width="211.251" x="186.5" y="118.2969"/><polygon fill="#F1F1F1" points="380.751,123.2969,380.751,137.2969,392.751,137.2969,392.751,129.2969,386.751,123.2969,380.751,123.2969" style="stroke:#181818;stroke-width:0.5;"/><line style="stroke:#181818;stroke-width:0.5;" x1="386.751" x2="386.751" y1="123.2969" y2="129.2969"/><line style="stroke:#181818;stroke-width:0.5;" x1="392.751" x2="386.751" y1="129.2969" y2="129.2969"/><text fill="#000000" font-family="DejaVu Sans" font-size="13" lengthAdjust="spacing" textLength="181.251" x="196.5" y="143.3638">&#1057;&#1082;&#1088;&#1080;&#1087;&#1090; &#1079;&#1072;&#1075;&#1088;&#1091;&#1079;&#1082;&#1080; &#1082;&#1072;&#1090;&#1072;&#1083;&#1086;&#1075;&#1072;</text><text fill="#000000" font-family="DejaVu Sans" font-size="13" lengthAdjust="spacing" textLength="143.1968" x="196.5" y="158.4966">(docker compose run)</text></g><!--entity db--><g class="entity" data-entity="db" data-source-line="9" data-uid="ent0007" id="entity_db"><path d="M119.5,267.2969 C119.5,257.2969 173.8733,257.2969 173.8733,257.2969 C173.8733,257.2969 228.2466,257.2969 228.2466,267.2969 L228.2466,291.4297 C228.2466,301.4297 173.8733,301.4297 173.8733,301.4297 C173.8733,301.4297 119.5,301.4297 119.5,291.4297 L119.5,267.2969" fill="#F1F1F1" style="stroke:#181818;stroke-width:0.5;"/><path d="M119.5,267.2969 C119.5,277.2969 173.8733,277.2969 173.8733,277.2969 C173.8733,277.2969 228.2466,277.2969 228.2466,267.2969" fill="none" style="stroke:#181818;stroke-width:0.5;"/><text fill="#000000" font-family="DejaVu Sans" font-size="13" lengthAdjust="spacing" textLength="88.7466" x="129.5" y="293.3638">cinematch.db</text></g><g class="link" data-entity-1="d" data-entity-2="db" data-uid="lnk10" id="link_d_db"><polygon fill="#444444" points="161.8686,256.8647,160.9162,247.0619,159.4056,252.5134,153.9541,251.0027,161.8686,256.8647" style="stroke:#444444;stroke-width:1;"/><path d="M109.2712,163.9426 C122.9917,188.1821 144.3077,225.8405 158.913,251.6431" fill="none" style="stroke:#444444;stroke-width:1;"/></g><g class="link" data-entity-1="l" data-entity-2="db" data-uid="lnk11" id="link_l_db"><polygon fill="#444444" points="192.7953,257.192,201.768,253.1312,196.1206,253.4581,195.7937,247.8107,192.7953,257.192" style="stroke:#444444;stroke-width:1;"/><path d="M269.2484,171.3442 C247.0139,196.311 217.5559,229.3888 196.7857,252.7113" fill="none" style="stroke:#444444;stroke-width:1;"/></g><g class="link" data-entity-1="l" data-entity-2="tmdb" data-uid="lnk12" id="link_l_tmdb"><polygon fill="#444444" points="585.7501,256.6134,584.7231,246.8182,583.2541,252.281,577.7913,250.8119,585.7501,256.6134" style="stroke:#444444;stroke-width:1;"/><path d="M397.5398,149.5361 C439.8913,154.9461 487.6488,166.2761 526,189.2969 C552.9458,205.4714 570.8133,230.6877 582.7549,251.4145" fill="none" style="stroke:#444444;stroke-width:1;"/><text fill="#000000" font-family="DejaVu Sans" font-size="13" lengthAdjust="spacing" textLength="41.7485" x="549" y="203.3638">HTTPS</text></g><g class="link" data-entity-1="d" data-entity-2="om" data-uid="lnk13" id="link_d_om"><polygon fill="#444444" points="421.9719,261.5531,414.5595,255.068,417.196,260.0728,412.1912,262.7094,421.9719,261.5531" style="stroke:#444444;stroke-width:1;"/><path d="M139.747,163.8224 C151.9649,169.0244 165.4537,174.5686 178,179.2969 C262.1716,211.0182 355.8976,241.0741 416.2409,259.7768" fill="none" style="stroke:#444444;stroke-width:1;"/><text fill="#000000" font-family="DejaVu Sans" font-size="13" lengthAdjust="spacing" textLength="41.7485" x="253" y="203.3638">HTTPS</text></g><!--SRC=[NO_1Ji9054Nt_OfdLx80zovCL1Qw89B8qiHCPuROE9qXC3KnXeHWN1Y9xeqBzGiQWO10uHVU_96lBHXnCStCk_UUthSJQgvY8U6oOs-Lh8Hnf3mRMYK1tp712Ivmx1vnZ2bESGpqNEB8tUFSlG2Eo95YwfxSWwSDKNny9Ns1ApTmpwvFqHxWYaPpDo3M4hymoSPP_4BlLWs_bcquDb7BT6J9XpiFu0yepRtVz8yC531oQr6u05ZRXat6BNdVVaiDjahvm3eW_hi_SEPwjCtAzO5A9JXqFGfFS8PJe4_MCC4vCOUOK4jHjEH5IsZ7kfI35O6xT9f62T9z_Cns1y4iswFOZL5nj5aAyd70AE_pKCk8MNvL4K7HCCX9NOyh4mlm6xNg4HpMJtFHHYIlXREMrEMQjDBaaeay0UNoGGPGsvSi1VjmqcZKpzSc4sq6Fm00]--></g></svg>