<svg xmlns="http://www.w3.org/2000/svg" xmlns:xlink="http://www.w3.org/1999/xlink" contentStyleType="text/css" data-diagram-type="DESCRIPTION" height="565px" preserveAspectRatio="none" style="width:456px;height:565px;background:#FFFFFF;" version="1.1" viewBox="0 0 456 565" width="456px" zoomAndPan="magnify"><title>&#1050;&#1086;&#1085;&#1090;&#1077;&#1082;&#1089;&#1090; &#1084;&#1086;&#1076;&#1091;&#1083;&#1103; &#1080;&#1085;&#1090;&#1077;&#1088;&#1092;&#1077;&#1081;&#1089;&#1072;</title><defs/><g><g class="title" data-source-line="2"><text fill="#000000" font-family="DejaVu Sans" font-size="14" font-weight="bold" lengthAdjust="spacing" textLength="242.7988" x="74.3506" y="22.9951">&#1050;&#1086;&#1085;&#1090;&#1077;&#1082;&#1089;&#1090; &#1084;&#1086;&#1076;&#1091;&#1083;&#1103; &#1080;&#1085;&#1090;&#1077;&#1088;&#1092;&#1077;&#1081;&#1089;&#1072;</text></g><!--entity cu--><g class="entity" data-entity="cu" data-source-line="3" data-uid="ent0002" id="entity_cu"><ellipse cx="108.3677" cy="202.7969" fill="#F1F1F1" rx="8" ry="8" style="stroke:#181818;stroke-width:0.5;"/><path d="M108.3677,210.7969 L108.3677,237.7969 M95.3677,218.7969 L121.3677,218.7969 M108.3677,237.7969 L95.3677,252.7969 M108.3677,237.7969 L121.3677,252.7969" fill="none" style="stroke:#181818;stroke-width:0.5;"/><text fill="#000000" font-family="DejaVu Sans" font-size="13" lengthAdjust="spacing" textLength="95.7354" x="60.5" y="266.3638">&#1055;&#1086;&#1083;&#1100;&#1079;&#1086;&#1074;&#1072;&#1090;&#1077;&#1083;&#1100;</text><text fill="#000000" font-family="DejaVu Sans" font-size="13" lengthAdjust="spacing" textLength="56.1641" x="60.5" y="281.4966">&#1082;&#1086;&#1085;&#1089;&#1086;&#1083;&#1080;</text></g><!--entity tu--><g class="entity" data-entity="tu" data-source-line="4" data-uid="ent0003" id="entity_tu"><ellipse cx="178.3677" cy="57.7969" fill="#F1F1F1" rx="8" ry="8" style="stroke:#181818;stroke-width:0.5;"/><path d="M178.3677,65.7969 L178.3677,92.7969 M165.3677,73.7969 L191.3677,73.7969 M178.3677,92.7969 L165.3677,107.7969 M178.3677,92.7969 L191.3677,107.7969" fill="none" style="stroke:#181818;stroke-width:0.5;"/><text fill="#000000" font-family="DejaVu Sans" font-size="13" lengthAdjust="spacing" textLength="95.7354" x="130.5" y="121.3638">&#1055;&#1086;&#1083;&#1100;&#1079;&#1086;&#1074;&#1072;&#1090;&#1077;&#1083;&#1100;</text><text fill="#000000" font-family="DejaVu Sans" font-size="13" lengthAdjust="spacing" textLength="61.7754" x="130.5" y="136.4966">Telegram</text></g><!--entity adm--><g class="entity" data-entity="adm" data-source-line="5" data-uid="ent0004" id="entity_adm"><ellipse cx="338.4011" cy="65.2969" fill="#F1F1F1" rx="8" ry="8" style="stroke:#181818;stroke-width:0.5;"/><path d="M338.4011,73.2969 L338.4011,100.2969 M325.4011,81.2969 L351.4011,81.2969 M338.4011,100.2969 L325.4011,115.2969 M338.4011,100.2969 L351.4011,115.2969" fill="none" style="stroke:#181818;stroke-width:0.5;"/><text fill="#000000" font-family="DejaVu Sans" font-size="13" lengthAdjust="spacing" textLength="107.8022" x="284.5" y="128.8638">&#1040;&#1076;&#1084;&#1080;&#1085;&#1080;&#1089;&#1090;&#1088;&#1072;&#1090;&#1086;&#1088;</text></g><!--entity tg--><g class="entity" data-entity="tg" data-source-line="6" data-uid="ent0005" id="entity_tg"><path d="M195.1091,226.5822 C199.1352,220.6979 203.8728,219.8272 208.303,226.1453 C210.6606,218.6515 216.8061,217.9193 221.1079,224.3585 C224.5663,218.7654 230.9967,218.1212 234.3704,224.4526 C237.8555,217.4055 242.571,217.416 247.6616,222.7257 C251.5563,217.6909 256.5479,216.6649 260.1312,223.0654 C263.3153,216.9705 269.436,216.9315 272.5223,223.1637 C276.914,217.8114 280.8966,219.2944 284.1989,224.3822 C287.9119,218.5437 293.6889,217.4649 297.7973,223.9457 C301.0613,218.4211 307.1758,218.7037 310.0683,224.3538 C314.3811,218.7267 320.1799,220.3061 322.8793,226.1548 C332.5028,226.7258 335.3834,233.4486 330.5141,241.3172 C335.3617,250.3603 330.4678,254.6074 321.8169,255.1851 C318.6571,261.3137 313.3765,261.7278 309.0978,256.4306 C304.7245,262.2139 300.5572,261.8433 296.7875,255.8023 C293.6017,261.8748 288.9729,262.0281 285.2296,256.3507 C282.0768,263.5714 275.6227,262.4665 271.6464,257.25 C267.8116,263.3893 263.5941,263.1503 259.1426,257.9288 C254.8452,264.2288 250.5853,262.9635 246.6108,257.5824 C242.7899,262.8905 237.5343,263.2759 234.3115,256.95 C229.6417,261.9324 224.6938,262.4885 221.3203,255.5386 C217.9956,261.0026 213.6229,262.433 209.362,256.5229 C204.8061,263.5589 198.2128,262.2902 195.4193,254.828 C185.9797,253.6024 183.2208,248.2118 187.6418,239.8087 C182.9588,231.4355 185.4503,226.8586 195.1091,226.5822" fill="#F1F1F1" style="stroke:#181818;stroke-width:0.5;"/><text fill="#000000" font-family="DejaVu Sans" font-size="13" lengthAdjust="spacing" textLength="112.5757" x="202" y="243.8638">Telegram Bot API</text></g><!--entity ui--><g class="entity" data-entity="ui" data-source-line="7" data-uid="ent0006" id="entity_ui"><rect fill="#E8F0FE" height="75.3984" rx="4" ry="4" style="stroke:#181818;stroke-width:0.5;" width="207.5464" x="79.5" y="354.2969"/><rect fill="#E8F0FE" height="10" style="stroke:#181818;stroke-width:0.5;" width="15" x="267.0464" y="359.2969"/><rect fill="#E8F0FE" height="2" style="stroke:#181818;stroke-width:0.5;" width="4" x="265.0464" y="361.2969"/><rect fill="#E8F0FE" height="2" style="stroke:#181818;stroke-width:0.5;" width="4" x="265.0464" y="365.2969"/><text fill="#000000" font-family="DejaVu Sans" font-size="13" lengthAdjust="spacing" textLength="139.4009" x="94.5" y="386.3638">&#1052;&#1086;&#1076;&#1091;&#1083;&#1100; &#1080;&#1085;&#1090;&#1077;&#1088;&#1092;&#1077;&#1081;&#1089;&#1072;</text><text fill="#000000" font-family="DejaVu Sans" font-size="13" lengthAdjust="spacing" textLength="96.3892" x="94.5" y="401.4966">(&#1082;&#1086;&#1085;&#1089;&#1086;&#1083;&#1100;, &#1073;&#1086;&#1090;,</text><text fill="#000000" font-family="DejaVu Sans" font-size="13" lengthAdjust="spacing" textLength="167.5464" x="94.5" y="416.6294">&#1087;&#1083;&#1072;&#1085;&#1080;&#1088;&#1086;&#1074;&#1097;&#1080;&#1082; &#1086;&#1090;&#1087;&#1088;&#1072;&#1074;&#1082;&#1080;)</text></g><!--entity ag--><g class="entity" data-entity="ag" data-source-line="8" data-uid="ent0007" id="entity_ag"><rect fill="#F1F1F1" height="45.1328" rx="4" ry="4" style="stroke:#181818;stroke-width:0.5;" width="174.5767" x="6" y="514.2969"/><rect fill="#F1F1F1" height="10" style="stroke:#181818;stroke-width:0.5;" width="15" x="160.5767" y="519.2969"/><rect fill="#F1F1F1" height="2" style="stroke:#181818;stroke-width:0.5;" width="4" x="158.5767" y="521.2969"/><rect fill="#F1F1F1" height="2" style="stroke:#181818;stroke-width:0.5;" width="4" x="158.5767" y="525.2969"/><text fill="#000000" font-family="DejaVu Sans" font-size="13" lengthAdjust="spacing" textLength="134.5767" x="21" y="546.3638">&#1052;&#1086;&#1076;&#1091;&#1083;&#1100; &#1048;&#1048;-&#1072;&#1075;&#1077;&#1085;&#1090;&#1086;&#1074;</text></g><!--entity data--><g class="entity" data-entity="data" data-source-line="9" data-uid="ent0008" id="entity_data"><rect fill="#F1F1F1" height="45.1328" rx="4" ry="4" style="stroke:#181818;stroke-width:0.5;" width="147.8657" x="199.5" y="514.2969"/><rect fill="#F1F1F1" height="10" style="stroke:#181818;stroke-width:0.5;" width="15" x="327.3657" y="519.2969"/><rect fill="#F1F1F1" height="2" style="stroke:#181818;stroke-width:0.5;" width="4" x="325.3657" y="521.2969"/><rect fill="#F1F1F1" height="2" style="stroke:#181818;stroke-width:0.5;" width="4" x="325.3657" y="525.2969"/><text fill="#000000" font-family="DejaVu Sans" font-size="13" lengthAdjust="spacing" textLength="107.8657" x="214.5" y="546.3638">&#1052;&#1086;&#1076;&#1091;&#1083;&#1100; &#1076;&#1072;&#1085;&#1085;&#1099;&#1093;</text></g><g class="link" data-entity-1="cu" data-entity-2="ui" data-uid="lnk9" id="link_cu_ui"><polygon fill="#444444" points="122.5618,354.1319,119.1771,344.8829,119.0845,350.539,113.4284,350.4464,122.5618,354.1319" style="stroke:#444444;stroke-width:1;"/><path d="M100.8344,284.3526 C99.8927,301.4088 101.4481,320.5707 109.5,336.2969 C112.8449,342.8299 113.2044,344.4632 118.3891,349.8204" fill="none" style="stroke:#444444;stroke-width:1;"/><text fill="#000000" font-family="DejaVu Sans" font-size="13" lengthAdjust="spacing" textLength="123.043" x="111.5" y="323.8638">&#1074;&#1074;&#1086;&#1076; &#1074; &#1090;&#1077;&#1088;&#1084;&#1080;&#1085;&#1072;&#1083;&#1077;</text></g><g class="link" data-entity-1="tu" data-entity-2="tg" data-uid="lnk10" id="link_tu_tg"><polygon fill="#444444" points="217.764,216.7341,212.5873,208.3555,213.6349,213.9145,208.0759,214.9621,217.764,216.7341" style="stroke:#444444;stroke-width:1;"/><path d="M172.1437,139.4075 C172.146,151.8659 173.956,165.0751 179.5,176.2969 C187.763,193.0223 197.9648,203.214 212.809,213.3506" fill="none" style="stroke:#444444;stroke-width:1;"/><text fill="#000000" font-family="DejaVu Sans" font-size="13" lengthAdjust="spacing" textLength="133.4531" x="181.5" y="171.3638">&#1089;&#1086;&#1086;&#1073;&#1097;&#1077;&#1085;&#1080;&#1103;, &#1082;&#1085;&#1086;&#1087;&#1082;&#1080;</text></g><g class="link" data-entity-1="adm" data-entity-2="tg" data-uid="lnk11" id="link_adm_tg"><polygon fill="#444444" points="283.8012,216.6323,293.0603,213.2753,287.4045,213.1658,287.514,207.51,283.8012,216.6323" style="stroke:#444444;stroke-width:1;"/><path d="M332.5341,131.8344 C329.1823,146.294 324.0932,162.6787 316.5,176.2969 C308.1017,191.359 299.589,201.4441 288.1252,212.4725" fill="none" style="stroke:#444444;stroke-width:1;"/><text fill="#000000" font-family="DejaVu Sans" font-size="13" lengthAdjust="spacing" textLength="61.3311" x="327.5" y="171.3638">&#1082;&#1086;&#1084;&#1072;&#1085;&#1076;&#1099;</text></g><g class="link" data-entity-1="tg" data-entity-2="ui" data-uid="lnk12" id="link_tg_ui"><polygon fill="#444444" points="256.8882,262.0729,251.9165,270.5748,256.3347,267.0422,259.8673,271.4604,256.8882,262.0729" style="stroke:#444444;stroke-width:1;"/><polygon fill="#444444" points="224.0572,354.2417,232.8953,349.8959,227.2613,350.4033,226.7539,344.7693,224.0572,354.2417" style="stroke:#444444;stroke-width:1;"/><path d="M256.224,268.036 C253.966,288.3072 249.2498,312.8673 236.5,336.2969 C233.0934,342.557 232.6107,343.995 227.9021,349.6356" fill="none" style="stroke:#444444;stroke-width:1;"/><text fill="#000000" font-family="DejaVu Sans" font-size="13" lengthAdjust="spacing" textLength="41.7485" x="273.5581" y="316.3638">HTTPS</text><text fill="#000000" font-family="DejaVu Sans" font-size="13" lengthAdjust="spacing" textLength="85.8647" x="251.5" y="331.4966">(long polling)</text></g><g class="link" data-entity-1="ui" data-entity-2="ag" data-uid="lnk13" id="link_ui_ag"><polygon fill="#444444" points="98.2966,514.1196,104.4159,506.4024,99.5443,509.2778,96.6689,504.4062,98.2966,514.1196" style="stroke:#444444;stroke-width:1;"/><path d="M139.8112,429.4006 C134.5507,435.0337 129.5998,441.0628 125.5,447.2969 C111.8545,468.046 104.629,489.5451 99.7938,508.3094" fill="none" style="stroke:#444444;stroke-width:1;"/><text fill="#000000" font-family="DejaVu Sans" font-size="13" lengthAdjust="spacing" textLength="122.7256" x="127.5" y="476.3638">handle_user_turn()</text></g><g class="link" data-entity-1="ui" data-entity-2="data" data-uid="lnk14" id="link_ui_data"><polygon fill="#444444" points="272.0239,514.2537,274.9793,504.8587,271.4578,509.2858,267.0307,505.7644,272.0239,514.2537" style="stroke:#444444;stroke-width:1;"/><path d="M236.8088,429.4956 C242.3424,434.9643 247.4217,440.9257 251.5,447.2969 C264.5595,467.6983 269.1878,489.3638 271.3446,508.2922" fill="none" style="stroke:#444444;stroke-width:1;"/><text fill="#000000" font-family="DejaVu Sans" font-size="13" lengthAdjust="spacing" textLength="176.4141" x="271.5" y="461.3638">&#1085;&#1072;&#1087;&#1086;&#1084;&#1080;&#1085;&#1072;&#1085;&#1080;&#1103; &#1082; &#1086;&#1090;&#1087;&#1088;&#1072;&#1074;&#1082;&#1077;,</text><text fill="#000000" font-family="DejaVu Sans" font-size="13" lengthAdjust="spacing" textLength="129.5684" x="294.9229" y="476.4966">&#1087;&#1088;&#1086;&#1074;&#1077;&#1088;&#1082;&#1072; &#1085;&#1086;&#1074;&#1080;&#1085;&#1086;&#1082;,</text><text fill="#000000" font-family="DejaVu Sans" font-size="13" lengthAdjust="spacing" textLength="77.6953" x="320.8594" y="491.6294">&#1089;&#1090;&#1072;&#1090;&#1080;&#1089;&#1090;&#1080;&#1082;&#1072;</text></g><!--SRC=[XLBDIiD04BxlKuprej2AHn4H55hq9jYZK48IOc2pAUdcuAsjUf0Mz2WY-0gnjbXJJLzXzesSdMWh-7VApto_ixiIAbUcdW-jZZwJ_aQOHbBeK4iVy0uBV3Dzd61kUgOF-4e_nkOSP-OQS5hEJDTS4EB5z30JZglZ12huGC2P6U8pFKUOiGPzdoZCMRDdvpYjWDC1D_sVrlIb7oHEn0Iz9DpWc49H4fpQXARBfC9q6UXuaN1bd7fG-HI0_LZ3tj5XAHG8DuxQiVAL9h7xHRlXZ-rErDhN-6PO1NmaitwLUisfJyOvkZQykIA57EmKvpOMzSbnkiw-QGYhzQt6PgF-k_yjtjQ8zKJcDWX9bfN-Y3pc06zcO2uPwpdQ4MuAjTgkjTm6oZ2o17g1ijp7yZ8AFn6wXEg0e5onm4VgCU5MrrGsfxU2cb8HGRjTedajhsm_DWD1_tOMfWVDvj4nhKx6Ae1sB6MeWdL18ujmBFlKKPxqMsd7JrewJTJQOcmRM7cRSCuMPLeE1D_tE-6JA4-0w-MO0OSUCRF0d13sfl0zuJjZpmcpTm00]--></g></svg>