<svg xmlns="http://www.w3.org/2000/svg" xmlns:xlink="http://www.w3.org/1999/xlink" contentStyleType="text/css" data-diagram-type="ACTIVITY" height="810px" preserveAspectRatio="none" style="width:656px;height:810px;background:#FFFFFF;" version="1.1" viewBox="0 0 656 810" width="656px" zoomAndPan="magnify"><title>&#1058;&#1072;&#1082;&#1090; &#1087;&#1083;&#1072;&#1085;&#1080;&#1088;&#1086;&#1074;&#1097;&#1080;&#1082;&#1072; &#1086;&#1090;&#1087;&#1088;&#1072;&#1074;&#1082;&#1080;</title><defs/><g><g class="title" data-source-line="2"><text fill="#000000" font-family="DejaVu Sans" font-size="14" font-weight="bold" lengthAdjust="spacing" textLength="242.9971" x="205.4509" y="32.9951">&#1058;&#1072;&#1082;&#1090; &#1087;&#1083;&#1072;&#1085;&#1080;&#1088;&#1086;&#1074;&#1097;&#1080;&#1082;&#1072; &#1086;&#1090;&#1087;&#1088;&#1072;&#1074;&#1082;&#1080;</text></g><ellipse cx="327.4495" cy="57.2969" fill="#222222" rx="10" ry="10" style="stroke:#222222;stroke-width:1;"/><rect fill="#F1F1F1" height="35.1328" rx="4" ry="4" style="stroke:#181818;stroke-width:0.5;" width="167.6973" x="243.6008" y="87.2969"/><text fill="#000000" font-family="DejaVu Sans" font-size="13" lengthAdjust="spacing" textLength="147.6973" x="253.6008" y="109.3638">&#1058;&#1072;&#1081;&#1084;&#1077;&#1088;: &#1088;&#1072;&#1079; &#1074; &#1084;&#1080;&#1085;&#1091;&#1090;&#1091;</text><rect fill="#F1F1F1" height="35.1328" rx="4" ry="4" style="stroke:#181818;stroke-width:0.5;" width="182.0303" x="236.4343" y="142.4297"/><text fill="#000000" font-family="DejaVu Sans" font-size="13" lengthAdjust="spacing" textLength="162.0303" x="246.4343" y="164.4966">get_due_reminders(now)</text><rect fill="#F1F1F1" height="50.2656" rx="4" ry="4" style="stroke:#181818;stroke-width:0.5;" width="221.5063" x="216.6963" y="255.1294"/><text fill="#000000" font-family="DejaVu Sans" font-size="13" lengthAdjust="spacing" textLength="201.5063" x="226.6963" y="277.1963">&#1057;&#1092;&#1086;&#1088;&#1084;&#1080;&#1088;&#1086;&#1074;&#1072;&#1090;&#1100; &#1090;&#1077;&#1082;&#1089;&#1090; &#1087;&#1086; &#1074;&#1080;&#1076;&#1091;</text><text fill="#000000" font-family="DejaVu Sans" font-size="13" lengthAdjust="spacing" textLength="195.0635" x="226.6963" y="292.3291">(rate_movie, custom, release)</text><rect fill="#F1F1F1" height="35.1328" rx="4" ry="4" style="stroke:#181818;stroke-width:0.5;" width="292.0796" x="181.4097" y="325.395"/><text fill="#000000" font-family="DejaVu Sans" font-size="13" lengthAdjust="spacing" textLength="272.0796" x="191.4097" y="347.4619">sendMessage (&#1085;&#1077; &#1095;&#1072;&#1097;&#1077; 25 &#1089;&#1086;&#1086;&#1073;&#1097;&#1077;&#1085;&#1080;&#1081;/&#1089;)</text><polygon fill="#F1F1F1" points="78.2683,399.6606,147.7942,399.6606,159.7942,411.6606,147.7942,423.6606,78.2683,423.6606,66.2683,411.6606,78.2683,399.6606" style="stroke:#181818;stroke-width:0.5;"/><text fill="#000000" font-family="DejaVu Sans" font-size="13" lengthAdjust="spacing" textLength="39.0317" x="117.0313" y="435.7275">&#1091;&#1089;&#1087;&#1077;&#1093;</text><text fill="#000000" font-family="DejaVu Sans" font-size="13" lengthAdjust="spacing" textLength="69.5259" x="78.2683" y="416.1611">&#1056;&#1077;&#1079;&#1091;&#1083;&#1100;&#1090;&#1072;&#1090;</text><rect fill="#F1F1F1" height="35.1328" rx="4" ry="4" style="stroke:#181818;stroke-width:0.5;" width="154.0625" x="36" y="458.7935"/><text fill="#000000" font-family="DejaVu Sans" font-size="13" lengthAdjust="spacing" textLength="134.0625" x="46" y="480.8604">mark_reminder_sent</text><polygon fill="#F1F1F1" points="222.0625,399.6606,378.856,399.6606,390.856,411.6606,378.856,423.6606,222.0625,423.6606,210.0625,411.6606,222.0625,399.6606" style="stroke:#181818;stroke-width:0.5;"/><text fill="#000000" font-family="DejaVu Sans" font-size="13" lengthAdjust="spacing" textLength="156.7935" x="222.0625" y="416.1611">403: &#1073;&#1086;&#1090; &#1079;&#1072;&#1073;&#1083;&#1086;&#1082;&#1080;&#1088;&#1086;&#1074;&#1072;&#1085;</text><text fill="#000000" font-family="DejaVu Sans" font-size="13" lengthAdjust="spacing" textLength="110.4302" x="390.856" y="408.5947">&#1089;&#1077;&#1090;&#1077;&#1074;&#1072;&#1103; &#1086;&#1096;&#1080;&#1073;&#1082;&#1072;</text><rect fill="#F1F1F1" height="35.1328" rx="4" ry="4" style="stroke:#181818;stroke-width:0.5;" width="128.0625" x="236.428" y="443.6606"/><text fill="#000000" font-family="DejaVu Sans" font-size="13" lengthAdjust="spacing" textLength="108.0625" x="246.428" y="465.7275">cancel_reminder</text><rect fill="#F1F1F1" height="50.2656" rx="4" ry="4" style="stroke:#181818;stroke-width:0.5;" width="208.043" x="410.856" y="446.6606"/><text fill="#000000" font-family="DejaVu Sans" font-size="13" lengthAdjust="spacing" textLength="139.0391" x="420.856" y="468.7275">&#1054;&#1089;&#1090;&#1072;&#1074;&#1080;&#1090;&#1100; scheduled,</text><text fill="#000000" font-family="DejaVu Sans" font-size="13" lengthAdjust="spacing" textLength="188.043" x="420.856" y="483.8604">&#1087;&#1086;&#1074;&#1090;&#1086;&#1088; &#1074; &#1089;&#1083;&#1077;&#1076;&#1091;&#1102;&#1097;&#1077;&#1084; &#1090;&#1072;&#1082;&#1090;&#1077;</text><polygon fill="#F1F1F1" points="260.4309,197.5625,394.468,197.5625,406.468,209.5625,394.468,221.5625,260.4309,221.5625,248.4309,209.5625,260.4309,197.5625" style="stroke:#181818;stroke-width:0.5;"/><text fill="#000000" font-family="DejaVu Sans" font-size="13" lengthAdjust="spacing" textLength="16.9546" x="331.4495" y="233.6294">&#1076;&#1072;</text><text fill="#000000" font-family="DejaVu Sans" font-size="13" lengthAdjust="spacing" textLength="134.0371" x="260.4309" y="214.063">&#1045;&#1089;&#1090;&#1100; &#1085;&#1072;&#1087;&#1086;&#1084;&#1080;&#1085;&#1072;&#1085;&#1080;&#1103;?</text><text fill="#000000" font-family="DejaVu Sans" font-size="13" lengthAdjust="spacing" textLength="24.0703" x="224.3606" y="206.4966">&#1085;&#1077;&#1090;</text><rect fill="#F1F1F1" height="35.1328" rx="4" ry="4" style="stroke:#181818;stroke-width:0.5;" width="119.0234" x="267.9377" y="608.4927"/><text fill="#000000" font-family="DejaVu Sans" font-size="13" lengthAdjust="spacing" textLength="99.0234" x="277.9377" y="630.5596">check_releases</text><rect fill="#F1F1F1" height="35.1328" rx="4" ry="4" style="stroke:#181818;stroke-width:0.5;" width="113.7358" x="270.5815" y="678.6255"/><text fill="#000000" font-family="DejaVu Sans" font-size="13" lengthAdjust="spacing" textLength="93.7358" x="280.5815" y="700.6924">purge_expired</text><polygon fill="#F1F1F1" points="240.8928,558.9263,414.0061,558.9263,426.0061,570.9263,414.0061,582.9263,240.8928,582.9263,228.8928,570.9263,240.8928,558.9263" style="stroke:#181818;stroke-width:0.5;"/><text fill="#000000" font-family="DejaVu Sans" font-size="13" lengthAdjust="spacing" textLength="16.9546" x="331.4495" y="594.9932">&#1076;&#1072;</text><text fill="#000000" font-family="DejaVu Sans" font-size="13" lengthAdjust="spacing" textLength="173.1133" x="240.8928" y="575.4268">&#1053;&#1072;&#1089;&#1090;&#1091;&#1087;&#1080;&#1083;&#1086; 10:00 &#1087;&#1086; UTC?</text><polygon fill="#F1F1F1" points="327.4495,733.7583,339.4495,745.7583,327.4495,757.7583,315.4495,745.7583,327.4495,733.7583" style="stroke:#181818;stroke-width:0.5;"/><ellipse cx="327.4495" cy="788.7583" fill="none" rx="11" ry="11" style="stroke:#222222;stroke-width:1;"/><ellipse cx="327.4495" cy="788.7583" fill="#222222" rx="6" ry="6" style="stroke:#222222;stroke-width:1;"/><line style="stroke:#444444;stroke-width:1;" x1="327.4495" x2="327.4495" y1="67.2969" y2="87.2969"/><polygon fill="#444444" points="323.4495,77.2969,327.4495,87.2969,331.4495,77.2969,327.4495,81.2969" style="stroke:#444444;stroke-width:1;"/><line style="stroke:#444444;stroke-width:1;" x1="327.4495" x2="327.4495" y1="122.4297" y2="142.4297"/><polygon fill="#444444" points="323.4495,132.4297,327.4495,142.4297,331.4495,132.4297,327.4495,136.4297" style="stroke:#444444;stroke-width:1;"/><line style="stroke:#444444;stroke-width:1;" x1="327.4495" x2="327.4495" y1="305.395" y2="325.395"/><polygon fill="#444444" points="323.4495,315.395,327.4495,325.395,331.4495,315.395,327.4495,319.395" style="stroke:#444444;stroke-width:1;"/><line style="stroke:#444444;stroke-width:1;" x1="113.0313" x2="113.0313" y1="423.6606" y2="458.7935"/><polygon fill="#444444" points="109.0313,448.7935,113.0313,458.7935,117.0313,448.7935,113.0313,452.7935" style="stroke:#444444;stroke-width:1;"/><line style="stroke:#444444;stroke-width:1;" x1="113.0313" x2="113.0313" y1="493.9263" y2="516.9263"/><polygon fill="#444444" points="109.0313,506.9263,113.0313,516.9263,117.0313,506.9263,113.0313,510.9263" style="stroke:#444444;stroke-width:1;"/><line style="stroke:#444444;stroke-width:1;" x1="300.4592" x2="300.4592" y1="423.6606" y2="443.6606"/><polygon fill="#444444" points="296.4592,433.6606,300.4592,443.6606,304.4592,433.6606,300.4592,437.6606" style="stroke:#444444;stroke-width:1;"/><line style="stroke:#444444;stroke-width:1;" x1="300.4592" x2="300.4592" y1="478.7935" y2="516.9263"/><polygon fill="#444444" points="296.4592,506.9263,300.4592,516.9263,304.4592,506.9263,300.4592,510.9263" style="stroke:#444444;stroke-width:1;"/><line style="stroke:#444444;stroke-width:1;" x1="159.7942" x2="210.0625" y1="411.6606" y2="411.6606"/><polygon fill="#444444" points="200.0625,407.6606,210.0625,411.6606,200.0625,415.6606,204.0625,411.6606" style="stroke:#444444;stroke-width:1;"/><line style="stroke:#444444;stroke-width:1;" x1="327.4495" x2="327.4495" y1="360.5278" y2="374.6606"/><line style="stroke:#444444;stroke-width:1;" x1="327.4495" x2="113.0313" y1="374.6606" y2="374.6606"/><line style="stroke:#444444;stroke-width:1;" x1="113.0313" x2="113.0313" y1="374.6606" y2="399.6606"/><polygon fill="#444444" points="109.0313,389.6606,113.0313,399.6606,117.0313,389.6606,113.0313,393.6606" style="stroke:#444444;stroke-width:1;"/><line style="stroke:#444444;stroke-width:1;" x1="390.856" x2="514.8774" y1="411.6606" y2="411.6606"/><line style="stroke:#444444;stroke-width:1;" x1="514.8774" x2="514.8774" y1="411.6606" y2="446.6606"/><polygon fill="#444444" points="510.8774,436.6606,514.8774,446.6606,518.8774,436.6606,514.8774,440.6606" style="stroke:#444444;stroke-width:1;"/><line style="stroke:#444444;stroke-width:1;" x1="514.8774" x2="514.8774" y1="496.9263" y2="516.9263"/><polygon fill="#444444" points="510.8774,506.9263,514.8774,516.9263,518.8774,506.9263,514.8774,510.9263" style="stroke:#444444;stroke-width:1;"/><line style="stroke:#444444;stroke-width:1;" x1="113.0313" x2="514.8774" y1="516.9263" y2="516.9263"/><line style="stroke:#444444;stroke-width:1;" x1="327.4495" x2="327.4495" y1="221.5625" y2="255.1294"/><polygon fill="#444444" points="323.4495,245.1294,327.4495,255.1294,331.4495,245.1294,327.4495,249.1294" style="stroke:#444444;stroke-width:1;"/><line style="stroke:#444444;stroke-width:1;" x1="327.4495" x2="327.4495" y1="516.9263" y2="526.9263"/><line style="stroke:#444444;stroke-width:1;" x1="327.4495" x2="630.8989" y1="526.9263" y2="526.9263"/><polygon fill="#444444" points="626.8989,384.5278,630.8989,374.5278,634.8989,384.5278,630.8989,380.5278" style="stroke:#444444;stroke-width:1;"/><line style="stroke:#444444;stroke-width:1;" x1="630.8989" x2="630.8989" y1="209.5625" y2="526.9263"/><line style="stroke:#444444;stroke-width:1;" x1="630.8989" x2="406.468" y1="209.5625" y2="209.5625"/><polygon fill="#444444" points="416.468,205.5625,406.468,209.5625,416.468,213.5625,412.468,209.5625" style="stroke:#444444;stroke-width:1;"/><line style="stroke:#444444;stroke-width:1;" x1="248.4309" x2="24" y1="209.5625" y2="209.5625"/><polygon fill="#444444" points="20,370.5278,24,380.5278,28,370.5278,24,374.5278" style="stroke:#444444;stroke-width:1;"/><line style="stroke:#444444;stroke-width:1;" x1="24" x2="24" y1="209.5625" y2="538.9263"/><line style="stroke:#444444;stroke-width:1;" x1="24" x2="327.4495" y1="538.9263" y2="538.9263"/><line style="stroke:#444444;stroke-width:1;" x1="327.4495" x2="327.4495" y1="538.9263" y2="558.9263"/><polygon fill="#444444" points="323.4495,548.9263,327.4495,558.9263,331.4495,548.9263,327.4495,552.9263" style="stroke:#444444;stroke-width:1;"/><line style="stroke:#444444;stroke-width:1;" x1="327.4495" x2="327.4495" y1="177.5625" y2="197.5625"/><polygon fill="#444444" points="323.4495,187.5625,327.4495,197.5625,331.4495,187.5625,327.4495,191.5625" style="stroke:#444444;stroke-width:1;"/><line style="stroke:#444444;stroke-width:1;" x1="327.4495" x2="327.4495" y1="643.6255" y2="678.6255"/><polygon fill="#444444" points="323.4495,668.6255,327.4495,678.6255,331.4495,668.6255,327.4495,672.6255" style="stroke:#444444;stroke-width:1;"/><line style="stroke:#444444;stroke-width:1;" x1="327.4495" x2="327.4495" y1="582.9263" y2="608.4927"/><polygon fill="#444444" points="323.4495,598.4927,327.4495,608.4927,331.4495,598.4927,327.4495,602.4927" style="stroke:#444444;stroke-width:1;"/><line style="stroke:#444444;stroke-width:1;" x1="426.0061" x2="438.0061" y1="570.9263" y2="570.9263"/><polygon fill="#444444" points="434.0061,651.1255,438.0061,661.1255,442.0061,651.1255,438.0061,655.1255" style="stroke:#444444;stroke-width:1;"/><line style="stroke:#444444;stroke-width:1;" x1="438.0061" x2="438.0061" y1="570.9263" y2="745.7583"/><line style="stroke:#444444;stroke-width:1;" x1="438.0061" x2="339.4495" y1="745.7583" y2="745.7583"/><polygon fill="#444444" points="349.4495,741.7583,339.4495,745.7583,349.4495,749.7583,345.4495,745.7583" style="stroke:#444444;stroke-width:1;"/><line style="stroke:#444444;stroke-width:1;" x1="327.4495" x2="327.4495" y1="713.7583" y2="733.7583"/><polygon fill="#444444" points="323.4495,723.7583,327.4495,733.7583,331.4495,723.7583,327.4495,727.7583" style="stroke:#444444;stroke-width:1;"/><line style="stroke:#444444;stroke-width:1;" x1="327.4495" x2="327.4495" y1="757.7583" y2="777.7583"/><polygon fill="#444444" points="323.4495,767.7583,327.4495,777.7583,331.4495,767.7583,327.4495,771.7583" style="stroke:#444444;stroke-width:1;"/><!--SRC=[FP7DRfj058NtFCNjpaXMw_vjy2ABhhjhTv4GWXiR5MEBWQRT6TEgZHGrgovRjNq2RCKoiGDvXJjlr3D3x0s2OUuvtptdIPo6IH4n-Ih_dF3Jk9WbJXxd2PFyarhsUaNo80UyjjBefNIoqLVIo5vgaawlv067jMnmq3Wg3xBSyUpadTpBLYyzilzt91l2IIEjhlHALsF7ct3kHmNx6S_YDE9C3TBvfJjsBgSnx0VoKvUuUKrmhi7GzUEF93TdBiKAjswbTXqYJ_xgBm1QcbizfzHs78nRx57sctG0WSojhixJGHRaxC_c7sCUKbYeV3uRKiO91uh10L75QVIMbGec1gYLBUblaBt2oulNf4lOTB8stmPAxfxfqWx65xZ-1wSxNSb1NuC1C2xbKqvfW0HAe6prLqCEcrcGVJZ5uCCqDoASA3P2hqOlFPArIPjaX_tNwACpWH_tbBQNxjN280qvEUaTfU1RmjEaOQAvCVLz1_JQTFa88hzDJhRFneQdmYb7HSBHy3or7Mpm6ocREY5tW1YYr3zi1FTaP_V6mxgcKNpXu7bij3N-hcFJ-GK6qsy5sSOiHCz7tcZKT_J-tPkpOrgdXe4IcfXiFyhsioYo2VlyQH5d78sTtX0zBlu3]--></g></svg>