<svg xmlns="http://www.w3.org/2000/svg" xmlns:xlink="http://www.w3.org/1999/xlink" contentStyleType="text/css" data-diagram-type="DESCRIPTION" height="605px" preserveAspectRatio="none" style="width:1309px;height:605px;background:#FFFFFF;" version="1.1" viewBox="0 0 1309 605" width="1309px" zoomAndPan="magnify"><title>&#1050;&#1086;&#1084;&#1087;&#1086;&#1085;&#1077;&#1085;&#1090;&#1099; &#1084;&#1086;&#1076;&#1091;&#1083;&#1103; &#1080;&#1085;&#1090;&#1077;&#1088;&#1092;&#1077;&#1081;&#1089;&#1072;</title><defs/><g><g class="title" data-source-line="2"><text fill="#000000" font-family="DejaVu Sans" font-size="14" font-weight="bold" lengthAdjust="spacing" textLength="269.9512" x="403.2744" y="22.9951">&#1050;&#1086;&#1084;&#1087;&#1086;&#1085;&#1077;&#1085;&#1090;&#1099; &#1084;&#1086;&#1076;&#1091;&#1083;&#1103; &#1080;&#1085;&#1090;&#1077;&#1088;&#1092;&#1077;&#1081;&#1089;&#1072;</text></g><!--cluster ?????? ??????????--><g class="cluster" data-entity="...... .........." data-source-line="5" data-uid="ent0004" id="cluster_...... .........."><path d="M123,151.2969 L275.1592,151.2969 A6,6 0 0 1 279.1592,155.2969 L286.1592,172.4297 L890,172.4297 A4,4 0 0 1 894,176.4297 L894,502.2969 A4,4 0 0 1 890,506.2969 L123,506.2969 A4,4 0 0 1 119,502.2969 L119,155.2969 A4,4 0 0 1 123,151.2969" fill="none" style="stroke:#000000;stroke-width:1.5;"/><line style="stroke:#000000;stroke-width:1.5;" x1="119" x2="286.1592" y1="172.4297" y2="172.4297"/><text fill="#000000" font-family="DejaVu Sans" font-size="13" font-weight="bold" lengthAdjust="spacing" textLength="154.1592" x="123" y="165.3638">&#1052;&#1086;&#1076;&#1091;&#1083;&#1100; &#1080;&#1085;&#1090;&#1077;&#1088;&#1092;&#1077;&#1081;&#1089;&#1072;</text></g><!--cluster ???????--><g class="cluster" data-entity="......." data-source-line="6" data-uid="ent0005" id="cluster_......."><path d="M662,177.2969 L722.918,177.2969 A6,6 0 0 1 726.918,181.2969 L733.918,198.4297 L882,198.4297 A4,4 0 0 1 886,202.4297 L886,371.7969 A4,4 0 0 1 882,375.7969 L662,375.7969 A4,4 0 0 1 658,371.7969 L658,181.2969 A4,4 0 0 1 662,177.2969" fill="none" style="stroke:#000000;stroke-width:1.5;"/><line style="stroke:#000000;stroke-width:1.5;" x1="658" x2="733.918" y1="198.4297" y2="198.4297"/><text fill="#000000" font-family="DejaVu Sans" font-size="13" font-weight="bold" lengthAdjust="spacing" textLength="62.918" x="662" y="191.3638">&#1050;&#1086;&#1085;&#1089;&#1086;&#1083;&#1100;</text></g><!--cluster Telegram-???--><g class="cluster" data-entity="Telegram-..." data-source-line="10" data-uid="ent0008" id="cluster_Telegram-..."><path d="M131,177.2969 L228.9312,177.2969 A6,6 0 0 1 232.9312,181.2969 L239.9312,198.4297 L554,198.4297 A4,4 0 0 1 558,202.4297 L558,494.2969 A4,4 0 0 1 554,498.2969 L131,498.2969 A4,4 0 0 1 127,494.2969 L127,181.2969 A4,4 0 0 1 131,177.2969" fill="none" style="stroke:#000000;stroke-width:1.5;"/><line style="stroke:#000000;stroke-width:1.5;" x1="127" x2="239.9312" y1="198.4297" y2="198.4297"/><text fill="#000000" font-family="DejaVu Sans" font-size="13" font-weight="bold" lengthAdjust="spacing" textLength="99.9312" x="131" y="191.3638">Telegram-&#1073;&#1086;&#1090;</text></g><!--entity U--><g class="entity" data-entity="U" data-source-line="3" data-uid="ent0002" id="entity_U"><ellipse cx="771.8677" cy="57.7969" fill="#F1F1F1" rx="8" ry="8" style="stroke:#181818;stroke-width:0.5;"/><path d="M771.8677,65.7969 L771.8677,92.7969 M758.8677,73.7969 L784.8677,73.7969 M771.8677,92.7969 L758.8677,107.7969 M771.8677,92.7969 L784.8677,107.7969" fill="none" style="stroke:#181818;stroke-width:0.5;"/><text fill="#000000" font-family="DejaVu Sans" font-size="13" lengthAdjust="spacing" textLength="95.7354" x="724" y="121.3638">&#1055;&#1086;&#1083;&#1100;&#1079;&#1086;&#1074;&#1072;&#1090;&#1077;&#1083;&#1100;</text></g><!--entity TG--><g class="entity" data-entity="TG" data-source-line="4" data-uid="ent0003" id="entity_TG"><path d="M850.6091,561.0822 C854.6352,555.1979 859.3728,554.3272 863.803,560.6453 C866.1606,553.1515 872.3061,552.4193 876.6079,558.8585 C880.0663,553.2654 886.4967,552.6212 889.8704,558.9526 C893.3555,551.9055 898.071,551.916 903.1616,557.2257 C907.0563,552.1909 912.0479,551.1649 915.6312,557.5654 C918.8153,551.4705 924.936,551.4315 928.0223,557.6637 C932.414,552.3114 936.3966,553.7944 939.6989,558.8822 C943.4119,553.0437 949.1889,551.9649 953.2973,558.4457 C956.5613,552.9211 962.6758,553.2037 965.5683,558.8538 C969.8811,553.2267 975.6799,554.8061 978.3793,560.6548 C988.0028,561.2258 990.8834,567.9486 986.0141,575.8172 C990.8617,584.8603 985.9678,589.1074 977.3169,589.6851 C974.1571,595.8137 968.8765,596.2278 964.5978,590.9306 C960.2245,596.7139 956.0572,596.3433 952.2875,590.3023 C949.1017,596.3748 944.4729,596.5281 940.7296,590.8507 C937.5768,598.0714 931.1227,596.9665 927.1464,591.75 C923.3116,597.8893 919.0941,597.6503 914.6426,592.4288 C910.3452,598.7288 906.0853,597.4635 902.1108,592.0824 C898.2899,597.3905 893.0343,597.7759 889.8115,591.45 C885.1417,596.4324 880.1938,596.9885 876.8203,590.0386 C873.4956,595.5026 869.1229,596.933 864.862,591.0229 C860.3061,598.0589 853.7128,596.7902 850.9193,589.328 C841.4797,588.1024 838.7208,582.7118 843.1418,574.3087 C838.4588,565.9355 840.9503,561.3586 850.6091,561.0822" fill="#F1F1F1" style="stroke:#181818;stroke-width:0.5;"/><text fill="#000000" font-family="DejaVu Sans" font-size="13" lengthAdjust="spacing" textLength="112.5757" x="857.5" y="578.3638">Telegram Bot API</text></g><!--entity AG--><g class="entity" data-entity="AG" data-source-line="19" data-uid="ent0015" id="entity_AG"><rect fill="#F1F1F1" height="45.1328" rx="4" ry="4" style="stroke:#181818;stroke-width:0.5;" width="174.5767" x="902.5" y="437.7969"/><rect fill="#F1F1F1" height="10" style="stroke:#181818;stroke-width:0.5;" width="15" x="1057.0767" y="442.7969"/><rect fill="#F1F1F1" height="2" style="stroke:#181818;stroke-width:0.5;" width="4" x="1055.0767" y="444.7969"/><rect fill="#F1F1F1" height="2" style="stroke:#181818;stroke-width:0.5;" width="4" x="1055.0767" y="448.7969"/><text fill="#000000" font-family="DejaVu Sans" font-size="13" lengthAdjust="spacing" textLength="134.5767" x="917.5" y="469.8638">&#1052;&#1086;&#1076;&#1091;&#1083;&#1100; &#1048;&#1048;-&#1072;&#1075;&#1077;&#1085;&#1090;&#1086;&#1074;</text></g><!--entity DATA--><g class="entity" data-entity="DATA" data-source-line="20" data-uid="ent0016" id="entity_DATA"><rect fill="#F1F1F1" height="45.1328" rx="4" ry="4" style="stroke:#181818;stroke-width:0.5;" width="147.8657" x="6" y="551.2969"/><rect fill="#F1F1F1" height="10" style="stroke:#181818;stroke-width:0.5;" width="15" x="133.8657" y="556.2969"/><rect fill="#F1F1F1" height="2" style="stroke:#181818;stroke-width:0.5;" width="4" x="131.8657" y="558.2969"/><rect fill="#F1F1F1" height="2" style="stroke:#181818;stroke-width:0.5;" width="4" x="131.8657" y="562.2969"/><text fill="#000000" font-family="DejaVu Sans" font-size="13" lengthAdjust="spacing" textLength="107.8657" x="21" y="583.3638">&#1052;&#1086;&#1076;&#1091;&#1083;&#1100; &#1076;&#1072;&#1085;&#1085;&#1099;&#1093;</text></g><!--entity CF--><g class="entity" data-entity="CF" data-source-line="17" data-uid="ent0014" id="entity_CF"><rect fill="#F1F1F1" height="60.2656" rx="4" ry="4" style="stroke:#181818;stroke-width:0.5;" width="81.7104" x="568" y="307.7969"/><rect fill="#F1F1F1" height="10" style="stroke:#181818;stroke-width:0.5;" width="15" x="629.7104" y="312.7969"/><rect fill="#F1F1F1" height="2" style="stroke:#181818;stroke-width:0.5;" width="4" x="627.7104" y="314.7969"/><rect fill="#F1F1F1" height="2" style="stroke:#181818;stroke-width:0.5;" width="4" x="627.7104" y="318.7969"/><text fill="#000000" font-family="DejaVu Sans" font-size="13" lengthAdjust="spacing" textLength="41.7104" x="583" y="339.8638">Config</text><text fill="#000000" font-family="DejaVu Sans" font-size="13" lengthAdjust="spacing" textLength="38.2065" x="583" y="354.9966">(.env)</text></g><!--entity CA--><g class="entity" data-entity="CA" data-source-line="7" data-uid="ent0006" id="entity_CA"><rect fill="#F1F1F1" height="60.2656" rx="4" ry="4" style="stroke:#181818;stroke-width:0.5;" width="211.1138" x="666.5" y="203.2969"/><rect fill="#F1F1F1" height="10" style="stroke:#181818;stroke-width:0.5;" width="15" x="857.6138" y="208.2969"/><rect fill="#F1F1F1" height="2" style="stroke:#181818;stroke-width:0.5;" width="4" x="855.6138" y="210.2969"/><rect fill="#F1F1F1" height="2" style="stroke:#181818;stroke-width:0.5;" width="4" x="855.6138" y="214.2969"/><text fill="#000000" font-family="DejaVu Sans" font-size="13" lengthAdjust="spacing" textLength="41.6978" x="681.5" y="235.3638">CliApp</text><text fill="#000000" font-family="DejaVu Sans" font-size="13" lengthAdjust="spacing" textLength="171.1138" x="681.5" y="250.4966">(&#1094;&#1080;&#1082;&#1083; &#1074;&#1074;&#1086;&#1076;&#1072;, &#1072;&#1088;&#1075;&#1091;&#1084;&#1077;&#1085;&#1090;&#1099;)</text></g><!--entity CR--><g class="entity" data-entity="CR" data-source-line="8" data-uid="ent0007" id="entity_CR"><rect fill="#F1F1F1" height="60.2656" rx="4" ry="4" style="stroke:#181818;stroke-width:0.5;" width="116.5083" x="713.5" y="307.7969"/><rect fill="#F1F1F1" height="10" style="stroke:#181818;stroke-width:0.5;" width="15" x="810.0083" y="312.7969"/><rect fill="#F1F1F1" height="2" style="stroke:#181818;stroke-width:0.5;" width="4" x="808.0083" y="314.7969"/><rect fill="#F1F1F1" height="2" style="stroke:#181818;stroke-width:0.5;" width="4" x="808.0083" y="318.7969"/><text fill="#000000" font-family="DejaVu Sans" font-size="13" lengthAdjust="spacing" textLength="76.5083" x="728.5" y="339.8638">CliRenderer</text><text fill="#000000" font-family="DejaVu Sans" font-size="13" lengthAdjust="spacing" textLength="34.4868" x="728.5" y="354.9966">(rich)</text></g><!--entity DP--><g class="entity" data-entity="DP" data-source-line="11" data-uid="ent0009" id="entity_DP"><rect fill="#F1F1F1" height="60.2656" rx="4" ry="4" style="stroke:#181818;stroke-width:0.5;" width="110.4399" x="440" y="203.2969"/><rect fill="#F1F1F1" height="10" style="stroke:#181818;stroke-width:0.5;" width="15" x="530.4399" y="208.2969"/><rect fill="#F1F1F1" height="2" style="stroke:#181818;stroke-width:0.5;" width="4" x="528.4399" y="210.2969"/><rect fill="#F1F1F1" height="2" style="stroke:#181818;stroke-width:0.5;" width="4" x="528.4399" y="214.2969"/><text fill="#000000" font-family="DejaVu Sans" font-size="13" lengthAdjust="spacing" textLength="70.4399" x="455" y="235.3638">Dispatcher</text><text fill="#000000" font-family="DejaVu Sans" font-size="13" lengthAdjust="spacing" textLength="63.9019" x="455" y="250.4966">(aiogram)</text></g><!--entity BH--><g class="entity" data-entity="BH" data-source-line="12" data-uid="ent0010" id="entity_BH"><rect fill="#F1F1F1" height="75.3984" rx="4" ry="4" style="stroke:#181818;stroke-width:0.5;" width="182.6572" x="366.5" y="300.2969"/><rect fill="#F1F1F1" height="10" style="stroke:#181818;stroke-width:0.5;" width="15" x="529.1572" y="305.2969"/><rect fill="#F1F1F1" height="2" style="stroke:#181818;stroke-width:0.5;" width="4" x="527.1572" y="307.2969"/><rect fill="#F1F1F1" height="2" style="stroke:#181818;stroke-width:0.5;" width="4" x="527.1572" y="311.2969"/><text fill="#000000" font-family="DejaVu Sans" font-size="13" lengthAdjust="spacing" textLength="79.9297" x="381.5" y="332.3638">BotHandlers</text><text fill="#000000" font-family="DejaVu Sans" font-size="13" lengthAdjust="spacing" textLength="142.6572" x="381.5" y="347.4966">(&#1089;&#1086;&#1086;&#1073;&#1097;&#1077;&#1085;&#1080;&#1103;, &#1082;&#1085;&#1086;&#1087;&#1082;&#1080;,</text><text fill="#000000" font-family="DejaVu Sans" font-size="13" lengthAdjust="spacing" textLength="66.4028" x="381.5" y="362.6294">&#1082;&#1086;&#1084;&#1072;&#1085;&#1076;&#1099;)</text></g><!--entity TR--><g class="entity" data-entity="TR" data-source-line="13" data-uid="ent0011" id="entity_TR"><rect fill="#F1F1F1" height="60.2656" rx="4" ry="4" style="stroke:#181818;stroke-width:0.5;" width="203.9727" x="346" y="430.2969"/><rect fill="#F1F1F1" height="10" style="stroke:#181818;stroke-width:0.5;" width="15" x="529.9727" y="435.2969"/><rect fill="#F1F1F1" height="2" style="stroke:#181818;stroke-width:0.5;" width="4" x="527.9727" y="437.2969"/><rect fill="#F1F1F1" height="2" style="stroke:#181818;stroke-width:0.5;" width="4" x="527.9727" y="441.2969"/><text fill="#000000" font-family="DejaVu Sans" font-size="13" lengthAdjust="spacing" textLength="121.9829" x="361" y="462.3638">TelegramRenderer</text><text fill="#000000" font-family="DejaVu Sans" font-size="13" lengthAdjust="spacing" textLength="163.9727" x="361" y="477.4966">(&#1082;&#1072;&#1088;&#1090;&#1086;&#1095;&#1082;&#1080;, &#1082;&#1083;&#1072;&#1074;&#1080;&#1072;&#1090;&#1091;&#1088;&#1099;)</text></g><!--entity AC--><g class="entity" data-entity="AC" data-source-line="14" data-uid="ent0012" id="entity_AC"><rect fill="#F1F1F1" height="45.1328" rx="4" ry="4" style="stroke:#181818;stroke-width:0.5;" width="155.248" x="172.5" y="437.7969"/><rect fill="#F1F1F1" height="10" style="stroke:#181818;stroke-width:0.5;" width="15" x="307.748" y="442.7969"/><rect fill="#F1F1F1" height="2" style="stroke:#181818;stroke-width:0.5;" width="4" x="305.748" y="444.7969"/><rect fill="#F1F1F1" height="2" style="stroke:#181818;stroke-width:0.5;" width="4" x="305.748" y="448.7969"/><text fill="#000000" font-family="DejaVu Sans" font-size="13" lengthAdjust="spacing" textLength="115.248" x="187.5" y="469.8638">AdminCommands</text></g><!--entity RD--><g class="entity" data-entity="RD" data-source-line="15" data-uid="ent0013" id="entity_RD"><rect fill="#F1F1F1" height="60.2656" rx="4" ry="4" style="stroke:#181818;stroke-width:0.5;" width="212.6182" x="135.5" y="307.7969"/><rect fill="#F1F1F1" height="10" style="stroke:#181818;stroke-width:0.5;" width="15" x="328.1182" y="312.7969"/><rect fill="#F1F1F1" height="2" style="stroke:#181818;stroke-width:0.5;" width="4" x="326.1182" y="314.7969"/><rect fill="#F1F1F1" height="2" style="stroke:#181818;stroke-width:0.5;" width="4" x="326.1182" y="318.7969"/><text fill="#000000" font-family="DejaVu Sans" font-size="13" lengthAdjust="spacing" textLength="133.5801" x="150.5" y="339.8638">ReminderDispatcher</text><text fill="#000000" font-family="DejaVu Sans" font-size="13" lengthAdjust="spacing" textLength="172.6182" x="150.5" y="354.9966">(&#1087;&#1083;&#1072;&#1085;&#1080;&#1088;&#1086;&#1074;&#1097;&#1080;&#1082; &#1086;&#1090;&#1087;&#1088;&#1072;&#1074;&#1082;&#1080;)</text></g><g class="link" data-entity-1="U" data-entity-2="CA" data-uid="lnk17" id="link_U_CA"><polygon fill="#444444" points="772,203.2697,776,194.2697,772,198.2697,768,194.2697,772,203.2697" style="stroke:#444444;stroke-width:1;"/><path d="M772,124.6342 C772,149.0503 772,174.6347 772,197.2697" fill="none" style="stroke:#444444;stroke-width:1;"/></g><g class="link" data-entity-1="CA" data-entity-2="CR" data-uid="lnk18" id="link_CA_CR"><polygon fill="#444444" points="772,307.6259,776,298.6259,772,302.6259,768,298.6259,772,307.6259" style="stroke:#444444;stroke-width:1;"/><path d="M772,263.3951 C772,277.2447 772,287.7669 772,301.6259" fill="none" style="stroke:#444444;stroke-width:1;"/></g><g class="link" data-entity-1="CA" data-entity-2="AG" data-uid="lnk19" id="link_CA_AG"><polygon fill="#444444" points="1077.508,449.7509,1087.0044,452.3619,1082.4519,449.0042,1085.8097,444.4516,1077.508,449.7509" style="stroke:#444444;stroke-width:1;"/><path d="M877.853,238.919 C965.1787,244.4733 1080.8489,256.3758 1120,281.2969 C1169.9208,313.0733 1175.3242,336.5188 1192,393.2969 C1194.3796,401.3991 1197.2511,405.6837 1192,412.2969 C1177.3904,430.696 1131.1165,441.6541 1083.4407,448.8548" fill="none" style="stroke:#444444;stroke-width:1;"/><text fill="#000000" font-family="DejaVu Sans" font-size="13" lengthAdjust="spacing" textLength="112.582" x="1188" y="342.3638">handle_user_turn</text></g><g class="link" data-entity-1="TG" data-entity-2="DP" data-uid="lnk20" id="link_TG_DP"><polygon fill="#444444" points="550.3297,245.8883,558.3865,251.5529,555.2353,246.855,559.9332,243.7038,550.3297,245.8883" style="stroke:#444444;stroke-width:1;"/><path d="M985.6499,564.422 C1022.4457,556.0816 1064.2259,539.4498 1087,506.2969 C1106.1255,478.4553 1101.7407,460.6885 1087,430.2969 C1040.3204,334.0555 997.7018,320.0387 898,281.2969 C847.322,261.6046 707.9315,270.1844 654,263.2969 C619.3473,258.8714 586.6807,253.0515 556.2165,247.0484" fill="none" style="stroke:#444444;stroke-width:1;"/><text fill="#000000" font-family="DejaVu Sans" font-size="13" lengthAdjust="spacing" textLength="81.1611" x="1079" y="407.3638">&#1086;&#1073;&#1085;&#1086;&#1074;&#1083;&#1077;&#1085;&#1080;&#1103;</text></g><g class="link" data-entity-1="DP" data-entity-2="BH" data-uid="lnk21" id="link_DP_BH"><polygon fill="#444444" points="471.3056,299.9368,478.1237,292.8296,473.0032,295.2339,470.599,290.1134,471.3056,299.9368" style="stroke:#444444;stroke-width:1;"/><path d="M484.4963,263.3951 C480.3942,274.7589 477.6798,282.2784 473.3428,294.2933" fill="none" style="stroke:#444444;stroke-width:1;"/></g><g class="link" data-entity-1="BH" data-entity-2="TR" data-uid="lnk22" id="link_BH_TR"><polygon fill="#444444" points="450.4343,429.9637,455.1649,421.3254,450.8478,424.9809,447.1923,420.6637,450.4343,429.9637" style="stroke:#444444;stroke-width:1;"/><path d="M454.9453,375.6056 C453.4979,393.0472 452.289,407.6143 450.9305,423.9843" fill="none" style="stroke:#444444;stroke-width:1;"/></g><g class="link" data-entity-1="BH" data-entity-2="AG" data-uid="lnk23" id="link_BH_AG"><polygon fill="#444444" points="902.253,447.3524,893.9393,442.0722,897.3074,446.617,892.7626,449.9852,902.253,447.3524" style="stroke:#444444;stroke-width:1;"/><path d="M549.6687,374.8202 C550.7836,375.1531 551.8943,375.4788 553,375.7969 C671.9542,410.0155 807.2856,433.2307 896.3183,446.4699" fill="none" style="stroke:#444444;stroke-width:1;"/><text fill="#000000" font-family="DejaVu Sans" font-size="13" lengthAdjust="spacing" textLength="112.582" x="698" y="407.3638">handle_user_turn</text></g><g class="link" data-entity-1="BH" data-entity-2="AC" data-uid="lnk24" id="link_BH_AC"><polygon fill="#444444" points="287.2659,437.7077,297.0586,436.6573,291.5924,435.2013,293.0484,429.735,287.2659,437.7077" style="stroke:#444444;stroke-width:1;"/><path d="M394.746,375.4416 C359.6068,395.7987 322.2878,417.4186 292.4576,434.7" fill="none" style="stroke:#444444;stroke-width:1;"/></g><g class="link" data-entity-1="AC" data-entity-2="DATA" data-uid="lnk25" id="link_AC_DATA"><polygon fill="#444444" points="112.8084,551.2784,122.5279,549.6872,116.9893,548.5362,118.1403,542.9977,112.8084,551.2784" style="stroke:#444444;stroke-width:1;"/><path d="M216.8187,483.0599 C186.7677,502.7698 147.7603,528.3541 117.8255,547.9878" fill="none" style="stroke:#444444;stroke-width:1;"/><text fill="#000000" font-family="DejaVu Sans" font-size="13" lengthAdjust="spacing" textLength="106.7866" x="167" y="528.3638">get_admin_stats</text></g><g class="link" data-entity-1="RD" data-entity-2="DATA" data-uid="lnk26" id="link_RD_DATA"><polygon fill="#444444" points="53.3039,551.094,49.5535,541.9871,49.6863,547.6424,44.0311,547.7753,53.3039,551.094" style="stroke:#444444;stroke-width:1;"/><path d="M135.4193,356.3746 C92.3736,369.2802 46.8425,391.6275 21,430.2969 C2.2318,458.3806 9.0108,474.7184 21,506.2969 C27.5739,523.6118 36.6075,535.164 48.9628,546.9521" fill="none" style="stroke:#444444;stroke-width:1;"/><text fill="#000000" font-family="DejaVu Sans" font-size="13" lengthAdjust="spacing" textLength="129.1938" x="27.5005" y="449.8638">get_due_reminders,</text><text fill="#000000" font-family="DejaVu Sans" font-size="13" lengthAdjust="spacing" textLength="138.1948" x="23" y="464.9966">mark_reminder_sent,</text><text fill="#000000" font-family="DejaVu Sans" font-size="13" lengthAdjust="spacing" textLength="99.0234" x="42.5857" y="480.1294">check_releases</text></g><g class="link" data-entity-1="RD" data-entity-2="TR" data-uid="lnk27" id="link_RD_TR"><polygon fill="#444444" points="398.1121,430.1149,392.3632,422.118,393.7962,427.5903,388.3239,429.0233,398.1121,430.1149" style="stroke:#444444;stroke-width:1;"/><path d="M291.6043,367.813 C323.8677,386.6855 360.6133,408.1799 392.9331,427.0854" fill="none" style="stroke:#444444;stroke-width:1;"/></g><g class="link" data-entity-1="TR" data-entity-2="TG" data-uid="lnk28" id="link_TR_TG"><polygon fill="#444444" points="842.3082,555.6431,834.4861,549.6586,837.4455,554.4796,832.6245,557.439,842.3082,555.6431" style="stroke:#444444;stroke-width:1;"/><path d="M550.2657,485.766 C638.6791,506.9207 758.3895,535.5639 836.4729,554.2469" fill="none" style="stroke:#444444;stroke-width:1;"/><text fill="#000000" font-family="DejaVu Sans" font-size="13" lengthAdjust="spacing" textLength="88.2388" x="739" y="528.3638">sendMessage</text></g><g class="link" data-entity-1="CA" data-entity-2="CF" data-uid="lnk29" id="link_CA_CF"><polygon fill="#444444" points="643.6832,307.7025,653.2786,305.4828,647.677,304.6943,648.4654,299.0927,643.6832,307.7025" style="stroke:#444444;stroke-width:1;"/><path d="M715.2953,263.4434 C695.4625,274.3036 673.3323,287.1919 654,300.2969 C650.5861,302.6111 651.9041,301.5104 648.4757,304.0927" fill="none" style="stroke:#444444;stroke-width:1;stroke-dasharray:7,7;"/></g><g class="link" data-entity-1="DP" data-entity-2="CF" data-uid="lnk30" id="link_DP_CF"><polygon fill="#444444" points="576.5562,307.6259,572.538,298.634,572.8381,304.2829,567.1892,304.5829,576.5562,307.6259" style="stroke:#444444;stroke-width:1;"/><path d="M527.3629,263.3951 C542.7664,277.2447 556.6806,289.7553 572.0945,303.6143" fill="none" style="stroke:#444444;stroke-width:1;stroke-dasharray:7,7;"/></g><!--SRC=[TLFBQjjG4DthAswzQY7s1tGHa6LgTr4mGja5n4MwjKNqCBfIePH0clH1II3RK0hv1STng6l7oY_C_QEUguVh67TZZMUEpfoPCteHn5wO-uAvCliOYawGHw6H1Lae6FsaWXxf2RzhUg2rEbUN38c2vkg2LkgQqK9dwK6TgIz0_56VQMfmBqjIrg9R05VgYdxZEQEfnkd_BSObEpAyCCbzrd94A4OfZrWtoPWvV5jMdRunuTu97mdG_DhqkzhRhyK-6OpzmslHQnIAgfakCkObqII9HPonbXK6vcHo7BzKtq2tf1M3kfbkGjC31frdT8zsZyt4hqf9bhc7nnQnBrAHWYmDl76Dj84ytPRKpDYcEohK-HvDlK1EUEQDIoeU91fTiVM6krWiQi1ZFnIfr4FeGGkwKp-qNbgeQyomH5J0joKj3evZFBIDKoJdpJZTmIvj8t9h9ho8RM3VXVfUScdc5OXcM1pyL1UereIElKje-b4GMqaKGQmiCQQrYx45C6ZtR7u8NvLg5x02fuFHu1FJgwCdf7H_gAdwshrwszlE9F7xO0IcZeW_rAQyCKwDBSZpgxgXcpPexolBTSzAR___hynBXMjrgRvMFfcEQHonTljGdufbLf7TH6QVlMRZqZOtbo9ripoD3QTV5dj35BM9fMqpJ5zRQQ2Y0N2hEoWZhBcEzZCsHSimhOeRkW0SYSpbsX1yvJoJXjtRhVgvSDFQ3echYNXwiacu4Yj04WvvEXiABiM61Q8SkugqA63zTq9AtBuUlzCvrEl7A5Nq5m00]--></g></svg>