<svg xmlns="http://www.w3.org/2000/svg" xmlns:xlink="http://www.w3.org/1999/xlink" contentStyleType="text/css" data-diagram-type="SEQUENCE" height="577px" preserveAspectRatio="none" style="width:923px;height:577px;background:#FFFFFF;" version="1.1" viewBox="0 0 923 577" width="923px" zoomAndPan="magnify"><title>&#1044;&#1086;&#1089;&#1090;&#1072;&#1074;&#1082;&#1072; &#1085;&#1072;&#1087;&#1086;&#1084;&#1080;&#1085;&#1072;&#1085;&#1080;&#1103;</title><defs/><g><text fill="#000000" font-family="DejaVu Sans" font-size="14" font-weight="bold" lengthAdjust="spacing" textLength="187.8857" x="368.9396" y="27.9951">&#1044;&#1086;&#1089;&#1090;&#1072;&#1074;&#1082;&#1072; &#1085;&#1072;&#1087;&#1086;&#1084;&#1080;&#1085;&#1072;&#1085;&#1080;&#1103;</text><rect fill="none" height="150.9297" rx="4" ry="4" style="stroke:#000000;stroke-width:1.5;" width="906.7649" x="10" y="250.9609"/><g><title>ReminderDispatcher</title><rect fill="#000000" fill-opacity="0.00000" height="380.8594" width="8" x="89.79" y="117.4297"/><line style="stroke:#181818;stroke-width:0.5;stroke-dasharray:5,5;" x1="93" x2="93" y1="117.4297" y2="498.2891"/></g><g><title>...... ......</title><rect fill="#000000" fill-opacity="0.00000" height="380.8594" width="8" x="304.4736" y="117.4297"/><line style="stroke:#181818;stroke-width:0.5;stroke-dasharray:5,5;" x1="307.5408" x2="307.5408" y1="117.4297" y2="498.2891"/></g><g><title>TelegramRenderer</title><rect fill="#000000" fill-opacity="0.00000" height="380.8594" width="8" x="443.3979" y="117.4297"/><line style="stroke:#181818;stroke-width:0.5;stroke-dasharray:5,5;" x1="446.4065" x2="446.4065" y1="117.4297" y2="498.2891"/></g><g><title>Telegram</title><rect fill="#000000" fill-opacity="0.00000" height="380.8594" width="8" x="559.2771" y="117.4297"/><line style="stroke:#181818;stroke-width:0.5;stroke-dasharray:5,5;" x1="562.3894" x2="562.3894" y1="117.4297" y2="498.2891"/></g><g><title>............</title><rect fill="#000000" fill-opacity="0.00000" height="380.8594" width="8" x="851.8972" y="117.4297"/><line style="stroke:#181818;stroke-width:0.5;stroke-dasharray:5,5;" x1="855.0295" x2="855.0295" y1="117.4297" y2="498.2891"/></g><g class="participant participant-head" data-participant="RD"><rect fill="#E2E2F0" height="29.1328" rx="4" ry="4" style="stroke:#181818;stroke-width:0.5;" width="147.5801" x="20" y="87.2969"/><text fill="#000000" font-family="DejaVu Sans" font-size="13" lengthAdjust="spacing" textLength="133.5801" x="27" y="106.3638">ReminderDispatcher</text></g><g class="participant participant-tail" data-participant="RD"><rect fill="#E2E2F0" height="29.1328" rx="4" ry="4" style="stroke:#181818;stroke-width:0.5;" width="147.5801" x="20" y="497.2891"/><text fill="#000000" font-family="DejaVu Sans" font-size="13" lengthAdjust="spacing" textLength="133.5801" x="27" y="516.356">ReminderDispatcher</text></g><g class="participant participant-head" data-participant="D"><rect fill="#E2E2F0" height="29.1328" rx="4" ry="4" style="stroke:#181818;stroke-width:0.5;" width="121.8657" x="247.5408" y="87.2969"/><text fill="#000000" font-family="DejaVu Sans" font-size="13" lengthAdjust="spacing" textLength="107.8657" x="254.5408" y="106.3638">&#1052;&#1086;&#1076;&#1091;&#1083;&#1100; &#1076;&#1072;&#1085;&#1085;&#1099;&#1093;</text></g><g class="participant participant-tail" data-participant="D"><rect fill="#E2E2F0" height="29.1328" rx="4" ry="4" style="stroke:#181818;stroke-width:0.5;" width="121.8657" x="247.5408" y="497.2891"/><text fill="#000000" font-family="DejaVu Sans" font-size="13" lengthAdjust="spacing" textLength="107.8657" x="254.5408" y="516.356">&#1052;&#1086;&#1076;&#1091;&#1083;&#1100; &#1076;&#1072;&#1085;&#1085;&#1099;&#1093;</text></g><g class="participant participant-head" data-participant="R"><rect fill="#E2E2F0" height="29.1328" rx="4" ry="4" style="stroke:#181818;stroke-width:0.5;" width="135.9829" x="379.4065" y="87.2969"/><text fill="#000000" font-family="DejaVu Sans" font-size="13" lengthAdjust="spacing" textLength="121.9829" x="386.4065" y="106.3638">TelegramRenderer</text></g><g class="participant participant-tail" data-participant="R"><rect fill="#E2E2F0" height="29.1328" rx="4" ry="4" style="stroke:#181818;stroke-width:0.5;" width="135.9829" x="379.4065" y="497.2891"/><text fill="#000000" font-family="DejaVu Sans" font-size="13" lengthAdjust="spacing" textLength="121.9829" x="386.4065" y="516.356">TelegramRenderer</text></g><g class="participant participant-head" data-participant="TG"><rect fill="#E2E2F0" height="29.1328" rx="4" ry="4" style="stroke:#181818;stroke-width:0.5;" width="75.7754" x="525.3894" y="87.2969"/><text fill="#000000" font-family="DejaVu Sans" font-size="13" lengthAdjust="spacing" textLength="61.7754" x="532.3894" y="106.3638">Telegram</text></g><g class="participant participant-tail" data-participant="TG"><rect fill="#E2E2F0" height="29.1328" rx="4" ry="4" style="stroke:#181818;stroke-width:0.5;" width="75.7754" x="525.3894" y="497.2891"/><text fill="#000000" font-family="DejaVu Sans" font-size="13" lengthAdjust="spacing" textLength="61.7754" x="532.3894" y="516.356">Telegram</text></g><g class="participant participant-head" data-participant="U"><text fill="#000000" font-family="DejaVu Sans" font-size="13" lengthAdjust="spacing" textLength="95.7354" x="805.0295" y="114.3638">&#1055;&#1086;&#1083;&#1100;&#1079;&#1086;&#1074;&#1072;&#1090;&#1077;&#1083;&#1100;</text><ellipse cx="855.8972" cy="50.7969" fill="#E2E2F0" rx="8" ry="8" style="stroke:#181818;stroke-width:0.5;"/><path d="M855.8972,58.7969 L855.8972,85.7969 M842.8972,66.7969 L868.8972,66.7969 M855.8972,85.7969 L842.8972,100.7969 M855.8972,85.7969 L868.8972,100.7969" fill="none" style="stroke:#181818;stroke-width:0.5;"/></g><g class="participant participant-tail" data-participant="U"><text fill="#000000" font-family="DejaVu Sans" font-size="13" lengthAdjust="spacing" textLength="95.7354" x="805.0295" y="509.356">&#1055;&#1086;&#1083;&#1100;&#1079;&#1086;&#1074;&#1072;&#1090;&#1077;&#1083;&#1100;</text><ellipse cx="855.8972" cy="520.9219" fill="#E2E2F0" rx="8" ry="8" style="stroke:#181818;stroke-width:0.5;"/><path d="M855.8972,528.9219 L855.8972,555.9219 M842.8972,536.9219 L868.8972,536.9219 M855.8972,555.9219 L842.8972,570.9219 M855.8972,555.9219 L868.8972,570.9219" fill="none" style="stroke:#181818;stroke-width:0.5;"/></g><g class="message" data-participant-1="RD" data-participant-2="D"><polygon fill="#444444" points="296.4736,144.5625,306.4736,148.5625,296.4736,152.5625,300.4736,148.5625" style="stroke:#444444;stroke-width:1;"/><line style="stroke:#444444;stroke-width:1;" x1="93.79" x2="302.4736" y1="148.5625" y2="148.5625"/><text fill="#000000" font-family="DejaVu Sans" font-size="13" lengthAdjust="spacing" textLength="162.0303" x="100.79" y="143.4966">get_due_reminders(now)</text></g><g class="message" data-participant-1="D" data-participant-2="RD"><polygon fill="#444444" points="104.79,173.6953,94.79,177.6953,104.79,181.6953,100.79,177.6953" style="stroke:#444444;stroke-width:1;"/><line style="stroke:#444444;stroke-width:1;stroke-dasharray:2,2;" x1="98.79" x2="307.4736" y1="177.6953" y2="177.6953"/><text fill="#000000" font-family="DejaVu Sans" font-size="13" lengthAdjust="spacing" textLength="190.6836" x="110.79" y="172.6294">[rate_movie: &#171;&#1044;&#1102;&#1085;&#1072;&#187;, 21:40]</text></g><g class="message" data-participant-1="RD" data-participant-2="R"><polygon fill="#444444" points="435.3979,202.8281,445.3979,206.8281,435.3979,210.8281,439.3979,206.8281" style="stroke:#444444;stroke-width:1;"/><line style="stroke:#444444;stroke-width:1;" x1="93.79" x2="441.3979" y1="206.8281" y2="206.8281"/><text fill="#000000" font-family="DejaVu Sans" font-size="13" lengthAdjust="spacing" textLength="220.4731" x="100.79" y="201.7622">&#1090;&#1077;&#1082;&#1089;&#1090; &#1085;&#1072;&#1087;&#1086;&#1084;&#1080;&#1085;&#1072;&#1085;&#1080;&#1103; + &#1074;&#1072;&#1088;&#1080;&#1072;&#1085;&#1090;&#1099;</text></g><g class="message" data-participant-1="R" data-participant-2="TG"><polygon fill="#444444" points="551.2771,231.9609,561.2771,235.9609,551.2771,239.9609,555.2771,235.9609" style="stroke:#444444;stroke-width:1;"/><line style="stroke:#444444;stroke-width:1;" x1="447.3979" x2="557.2771" y1="235.9609" y2="235.9609"/><text fill="#000000" font-family="DejaVu Sans" font-size="13" lengthAdjust="spacing" textLength="88.2388" x="454.3979" y="230.895">sendMessage</text></g><path d="M14,250.9609 L74.4429,250.9609 L74.4429,258.0938 L64.4429,268.0938 L10,268.0938 L10,254.9609 A4,4 0 0 1 14,250.9609" fill="#EEEEEE" style="stroke:#000000;stroke-width:1.5;"/><rect fill="none" height="150.9297" rx="4" ry="4" style="stroke:#000000;stroke-width:1.5;" width="906.7649" x="10" y="250.9609"/><text fill="#000000" font-family="DejaVu Sans" font-size="13" font-weight="bold" lengthAdjust="spacing" textLength="19.4429" x="25" y="264.0278">alt</text><text fill="#000000" font-family="DejaVu Sans" font-size="13" font-weight="bold" lengthAdjust="spacing" textLength="99.8042" x="89.4429" y="265.0278">[&#1076;&#1086;&#1089;&#1090;&#1072;&#1074;&#1083;&#1077;&#1085;&#1086;]</text><g class="message" data-participant-1="TG" data-participant-2="U"><polygon fill="#444444" points="843.8972,285.3594,853.8972,289.3594,843.8972,293.3594,847.8972,289.3594" style="stroke:#444444;stroke-width:1;"/><line style="stroke:#444444;stroke-width:1;stroke-dasharray:2,2;" x1="563.2771" x2="849.8972" y1="289.3594" y2="289.3594"/><text fill="#000000" font-family="DejaVu Sans" font-size="13" lengthAdjust="spacing" textLength="268.6201" x="570.2771" y="284.2935">&#171;&#1050;&#1072;&#1082; &#1074;&#1072;&#1084; "&#1044;&#1102;&#1085;&#1072;"? &#1054;&#1094;&#1077;&#1085;&#1080;&#1090;&#1077; &#1086;&#1090; 1 &#1076;&#1086; 10&#187;</text></g><g class="message" data-participant-1="RD" data-participant-2="D"><polygon fill="#444444" points="296.4736,314.4922,306.4736,318.4922,296.4736,322.4922,300.4736,318.4922" style="stroke:#444444;stroke-width:1;"/><line style="stroke:#444444;stroke-width:1;" x1="93.79" x2="302.4736" y1="318.4922" y2="318.4922"/><text fill="#000000" font-family="DejaVu Sans" font-size="13" lengthAdjust="spacing" textLength="134.0625" x="100.79" y="313.4263">mark_reminder_sent</text></g><line style="stroke:#000000;stroke-width:1;stroke-dasharray:2,2;" x1="10" x2="916.7649" y1="327.4922" y2="327.4922"/><text fill="#000000" font-family="DejaVu Sans" font-size="13" font-weight="bold" lengthAdjust="spacing" textLength="270.6958" x="15" y="339.5591">[403 Forbidden (&#1073;&#1086;&#1090; &#1079;&#1072;&#1073;&#1083;&#1086;&#1082;&#1080;&#1088;&#1086;&#1074;&#1072;&#1085;)]</text><g class="message" data-participant-1="TG" data-participant-2="RD"><polygon fill="#444444" points="104.79,360.7578,94.79,364.7578,104.79,368.7578,100.79,364.7578" style="stroke:#444444;stroke-width:1;"/><line style="stroke:#444444;stroke-width:1;stroke-dasharray:2,2;" x1="98.79" x2="562.2771" y1="364.7578" y2="364.7578"/><text fill="#000000" font-family="DejaVu Sans" font-size="13" lengthAdjust="spacing" textLength="81.0786" x="110.79" y="359.6919">&#1086;&#1096;&#1080;&#1073;&#1082;&#1072; 403</text></g><g class="message" data-participant-1="RD" data-participant-2="D"><polygon fill="#444444" points="296.4736,389.8906,306.4736,393.8906,296.4736,397.8906,300.4736,393.8906" style="stroke:#444444;stroke-width:1;"/><line style="stroke:#444444;stroke-width:1;" x1="93.79" x2="302.4736" y1="393.8906" y2="393.8906"/><text fill="#000000" font-family="DejaVu Sans" font-size="13" lengthAdjust="spacing" textLength="108.0625" x="100.79" y="388.8247">cancel_reminder</text></g><g class="message" data-participant-1="U" data-participant-2="TG"><polygon fill="#444444" points="574.2771,426.0234,564.2771,430.0234,574.2771,434.0234,570.2771,430.0234" style="stroke:#444444;stroke-width:1;"/><line style="stroke:#444444;stroke-width:1;" x1="568.2771" x2="854.8972" y1="430.0234" y2="430.0234"/><text fill="#000000" font-family="DejaVu Sans" font-size="13" lengthAdjust="spacing" textLength="108.5322" x="580.2771" y="424.9575">&#171;&#1085;&#1072; &#1074;&#1086;&#1089;&#1100;&#1084;&#1105;&#1088;&#1082;&#1091;&#187;</text></g><path d="M521,447.0234 L521,479.0234 A4,4 0 0 0 525,483.0234 L893,483.0234 A4,4 0 0 0 897,479.0234 L897,453.0234 L887,443.0234 L525,443.0234 A4,4 0 0 0 521,447.0234" fill="#FEFFDD" style="stroke:#181818;stroke-width:0.5;"/><path d="M887,443.0234 L887,451.0234 A2,2 0 0 0 889,453.0234 L897,453.0234 L887,443.0234" fill="#FEFFDD" style="stroke:#181818;stroke-width:0.5;"/><text fill="#000000" font-family="DejaVu Sans" font-size="13" lengthAdjust="spacing" textLength="224.5737" x="592.4009" y="460.0903">&#1076;&#1072;&#1083;&#1100;&#1096;&#1077; &#8212; &#1086;&#1073;&#1099;&#1095;&#1085;&#1099;&#1081; &#1093;&#1086;&#1076; &#1076;&#1080;&#1072;&#1083;&#1086;&#1075;&#1072;</text><text fill="#000000" font-family="DejaVu Sans" font-size="13" lengthAdjust="spacing" textLength="128.394" x="592.4009" y="475.2231">(&#1072;&#1075;&#1077;&#1085;&#1090;-&#1082;&#1086;&#1084;&#1087;&#1072;&#1085;&#1100;&#1086;&#1085;)</text><!--SRC=[TL9DZn914BtthoWvGTmre7lYe1VYdhnCuAHcqivKSE9ya9vcZJTaisgoH6F2oHZz0Lu6TZVYmB09lw3wB_XBh6uHiaPFKzFz-hrNh-fMb0RnC4JmS_qgnZlHC8c5ZdICG5DQczTcJ0NDgQG2gEBocjQqeeMhArgO3s8WbOw2Q21J3JKFaoWDKNMYV21ry1nL3MGENkScZ3uppQKvfQMP05qwhigScpE7_WlSnHZxIYOUMkO_ZF_6kBlkiP21pXJhV6KTrg3l_9rJmTrSsNy7wmcl0uVteGDjwAFsmo7wQki_hwVPouRWUmPu5l5OIOr-afr4s8RDDvgQzpQ4pV80xhRQHysdMpQFiKwcjE7z9pIu3SxEY0_vo8pDkV3iw-unFy-vqKUOvxAFGiRQ1hIVn9AfAreBi5ZhhWVEpoU-BHqhhRZnhRtQ0w0lverxix2sWAd6q7ASq6fkbaoqZo6HwiKk0vzzQ85nZd3Kl0SFC_Ki2aDCeKupnyAf5bmkkRkIsKU_CwQgiJVdecFmEsvqvhQ8gMv81Z8DCDw92kvTz7PHS6ELNRsvIs12A_EHTKfpoiRJJ2Da9wWOUk1YS9l4usMvA_Wvch8opNYjtjhbeXzWpkpQMPYDtVg-eE99MkUV2nkH6H-oHpkhQpUM2TTLunS0]--></g></svg>