<svg xmlns="http://www.w3.org/2000/svg" xmlns:xlink="http://www.w3.org/1999/xlink" contentStyleType="text/css" data-diagram-type="CLASS" height="519px" preserveAspectRatio="none" style="width:1054px;height:519px;background:#FFFFFF;" version="1.1" viewBox="0 0 1054 519" width="1054px" zoomAndPan="magnify"><title>&#1057;&#1091;&#1097;&#1085;&#1086;&#1089;&#1090;&#1080; &#1084;&#1086;&#1076;&#1091;&#1083;&#1103; &#1048;&#1048;-&#1072;&#1075;&#1077;&#1085;&#1090;&#1086;&#1074;</title><defs/><g><g class="title" data-source-line="2"><text fill="#000000" font-family="DejaVu Sans" font-size="14" font-weight="bold" lengthAdjust="spacing" textLength="242.6416" x="401.6792" y="22.9951">&#1057;&#1091;&#1097;&#1085;&#1086;&#1089;&#1090;&#1080; &#1084;&#1086;&#1076;&#1091;&#1083;&#1103; &#1048;&#1048;-&#1072;&#1075;&#1077;&#1085;&#1090;&#1086;&#1074;</text></g><!--class S--><g class="entity" data-entity="S" data-source-line="4" data-uid="ent0002" id="entity_S"><rect fill="#F1F1F1" height="108.7969" rx="4" ry="4" style="stroke:#181818;stroke-width:0.5;" width="169.2695" x="376" y="49.2969"/><ellipse cx="400.2698" cy="69.4297" fill="#ADD1B2" rx="10" ry="10" style="stroke:#181818;stroke-width:1;"/><path d="M402.1292,73.6641 Q401.6917,73.8828 401.1917,73.9922 Q400.7073,74.1172 400.176,74.1172 Q398.2542,74.1172 397.2385,72.8516 Q396.2385,71.5859 396.2385,69.1953 Q396.2385,66.8047 397.2385,65.5391 Q398.2542,64.2734 400.176,64.2734 Q400.7073,64.2734 401.2073,64.3984 Q401.7073,64.5078 402.1292,64.7422 L402.1292,66.8203 Q401.6448,66.3828 401.1917,66.1797 Q400.7385,65.9609 400.2542,65.9609 Q399.2385,65.9609 398.7073,66.7891 Q398.176,67.6016 398.176,69.1953 Q398.176,70.8047 398.7073,71.6172 Q399.2385,72.4297 400.2542,72.4297 Q400.7385,72.4297 401.1917,72.2266 Q401.6448,72.0234 402.1292,71.5703 L402.1292,73.6641 Z " fill="#000000"/><text fill="#000000" font-family="DejaVu Sans" font-size="13" lengthAdjust="spacing" textLength="91.0063" x="428.2727" y="66.3638">DialogSession</text><text fill="#000000" font-family="DejaVu Sans" font-size="13" lengthAdjust="spacing" textLength="116.4478" x="415.552" y="81.4966">(&#1089;&#1077;&#1089;&#1089;&#1080;&#1103; &#1076;&#1080;&#1072;&#1083;&#1086;&#1075;&#1072;)</text><line style="stroke:#181818;stroke-width:0.5;" x1="377" x2="544.2695" y1="89.5625" y2="89.5625"/><text fill="#000000" font-family="DejaVu Sans" font-size="13" lengthAdjust="spacing" textLength="76.5781" x="382" y="105.6294">user_id : str</text><text fill="#000000" font-family="DejaVu Sans" font-size="13" lengthAdjust="spacing" textLength="86.2964" x="382" y="120.7622">stage : Stage</text><text fill="#000000" font-family="DejaVu Sans" font-size="13" lengthAdjust="spacing" textLength="157.2695" x="382" y="135.895">clarifications_asked : int</text><text fill="#000000" font-family="DejaVu Sans" font-size="13" lengthAdjust="spacing" textLength="144.9487" x="382" y="151.0278">updated_at : datetime</text></g><!--class V--><g class="entity" data-entity="V" data-source-line="10" data-uid="ent0003" id="entity_V"><rect fill="#F1F1F1" height="169.3281" rx="4" ry="4" style="stroke:#181818;stroke-width:0.5;" width="172.5005" x="6" y="213.2969"/><ellipse cx="24.7569" cy="233.4297" fill="#ADD1B2" rx="10" ry="10" style="stroke:#181818;stroke-width:1;"/><path d="M26.6162,237.6641 Q26.1787,237.8828 25.6787,237.9922 Q25.1944,238.1172 24.6631,238.1172 Q22.7412,238.1172 21.7256,236.8516 Q20.7256,235.5859 20.7256,233.1953 Q20.7256,230.8047 21.7256,229.5391 Q22.7412,228.2734 24.6631,228.2734 Q25.1944,228.2734 25.6944,228.3984 Q26.1944,228.5078 26.6162,228.7422 L26.6162,230.8203 Q26.1319,230.3828 25.6787,230.1797 Q25.2256,229.9609 24.7412,229.9609 Q23.7256,229.9609 23.1944,230.7891 Q22.6631,231.6016 22.6631,233.1953 Q22.6631,234.8047 23.1944,235.6172 Q23.7256,236.4297 24.7412,236.4297 Q25.2256,236.4297 25.6787,236.2266 Q26.1319,236.0234 26.6162,235.5703 L26.6162,237.6641 Z " fill="#000000"/><text fill="#000000" font-family="DejaVu Sans" font-size="13" lengthAdjust="spacing" textLength="76.8447" x="66.3564" y="230.3638">StateVector</text><text fill="#000000" font-family="DejaVu Sans" font-size="13" lengthAdjust="spacing" textLength="131.9297" x="38.8139" y="245.4966">(&#1074;&#1077;&#1082;&#1090;&#1086;&#1088; &#1089;&#1086;&#1089;&#1090;&#1086;&#1103;&#1085;&#1080;&#1103;)</text><line style="stroke:#181818;stroke-width:0.5;" x1="7" x2="177.5005" y1="253.5625" y2="253.5625"/><text fill="#000000" font-family="DejaVu Sans" font-size="13" lengthAdjust="spacing" textLength="84.8428" x="12" y="269.6294">mood : Mood</text><text fill="#000000" font-family="DejaVu Sans" font-size="13" lengthAdjust="spacing" textLength="92.7139" x="12" y="284.7622">energy : Level</text><text fill="#000000" font-family="DejaVu Sans" font-size="13" lengthAdjust="spacing" textLength="147.3926" x="12" y="299.895">available_minutes : int</text><text fill="#000000" font-family="DejaVu Sans" font-size="13" lengthAdjust="spacing" textLength="134.4053" x="12" y="315.0278">company : Company</text><text fill="#000000" font-family="DejaVu Sans" font-size="13" lengthAdjust="spacing" textLength="120.0977" x="12" y="330.1606">genre_wishes : list</text><text fill="#000000" font-family="DejaVu Sans" font-size="13" lengthAdjust="spacing" textLength="111.5474" x="12" y="345.2935">genre_avoid : list</text><text fill="#000000" font-family="DejaVu Sans" font-size="13" lengthAdjust="spacing" textLength="160.5005" x="12" y="360.4263">weather : Weather [0..1]</text><text fill="#000000" font-family="DejaVu Sans" font-size="13" lengthAdjust="spacing" textLength="105.0029" x="12" y="375.5591">notes : str [0..1]</text></g><!--class R--><g class="entity" data-entity="R" data-source-line="20" data-uid="ent0004" id="entity_R"><rect fill="#F1F1F1" height="123.9297" rx="4" ry="4" style="stroke:#181818;stroke-width:0.5;" width="160.4971" x="197.5" y="235.7969"/><ellipse cx="218.5563" cy="255.9297" fill="#ADD1B2" rx="10" ry="10" style="stroke:#181818;stroke-width:1;"/><path d="M220.4157,260.1641 Q219.9782,260.3828 219.4782,260.4922 Q218.9938,260.6172 218.4625,260.6172 Q216.5407,260.6172 215.525,259.3516 Q214.525,258.0859 214.525,255.6953 Q214.525,253.3047 215.525,252.0391 Q216.5407,250.7734 218.4625,250.7734 Q218.9938,250.7734 219.4938,250.8984 Q219.9938,251.0078 220.4157,251.2422 L220.4157,253.3203 Q219.9313,252.8828 219.4782,252.6797 Q219.025,252.4609 218.5407,252.4609 Q217.525,252.4609 216.9938,253.2891 Q216.4625,254.1016 216.4625,255.6953 Q216.4625,257.3047 216.9938,258.1172 Q217.525,258.9297 218.5407,258.9297 Q219.025,258.9297 219.4782,258.7266 Q219.9313,258.5234 220.4157,258.0703 L220.4157,260.1641 Z " fill="#000000"/><text fill="#000000" font-family="DejaVu Sans" font-size="13" lengthAdjust="spacing" textLength="114.8164" x="233.1244" y="252.8638">Recommendation</text><text fill="#000000" font-family="DejaVu Sans" font-size="13" lengthAdjust="spacing" textLength="75.626" x="252.7196" y="267.9966">(&#1087;&#1086;&#1076;&#1073;&#1086;&#1088;&#1082;&#1072;)</text><line style="stroke:#181818;stroke-width:0.5;" x1="198.5" x2="356.9971" y1="276.0625" y2="276.0625"/><text fill="#000000" font-family="DejaVu Sans" font-size="13" lengthAdjust="spacing" textLength="132.8438" x="203.5" y="292.1294">search_criteria : dict</text><text fill="#000000" font-family="DejaVu Sans" font-size="13" lengthAdjust="spacing" textLength="148.4971" x="203.5" y="307.2622">candidate_ids : list[int]</text><text fill="#000000" font-family="DejaVu Sans" font-size="13" lengthAdjust="spacing" textLength="70.3955" x="203.5" y="322.395">cursor : int</text><text fill="#000000" font-family="DejaVu Sans" font-size="13" lengthAdjust="spacing" textLength="125.8042" x="203.5" y="337.5278">shown_ids : list[int]</text><text fill="#000000" font-family="DejaVu Sans" font-size="13" lengthAdjust="spacing" textLength="131.0093" x="203.5" y="352.6606">searches_count : int</text></g><!--class T--><g class="entity" data-entity="T" data-source-line="27" data-uid="ent0005" id="entity_T"><rect fill="#F1F1F1" height="93.6641" rx="4" ry="4" style="stroke:#181818;stroke-width:0.5;" width="151.8687" x="384.5" y="419.2969"/><ellipse cx="398.5" cy="439.4297" fill="#ADD1B2" rx="10" ry="10" style="stroke:#181818;stroke-width:1;"/><path d="M400.3594,443.6641 Q399.9219,443.8828 399.4219,443.9922 Q398.9375,444.1172 398.4063,444.1172 Q396.4844,444.1172 395.4688,442.8516 Q394.4688,441.5859 394.4688,439.1953 Q394.4688,436.8047 395.4688,435.5391 Q396.4844,434.2734 398.4063,434.2734 Q398.9375,434.2734 399.4375,434.3984 Q399.9375,434.5078 400.3594,434.7422 L400.3594,436.8203 Q399.875,436.3828 399.4219,436.1797 Q398.9688,435.9609 398.4844,435.9609 Q397.4688,435.9609 396.9375,436.7891 Q396.4063,437.6016 396.4063,439.1953 Q396.4063,440.8047 396.9375,441.6172 Q397.4688,442.4297 398.4844,442.4297 Q398.9688,442.4297 399.4219,442.2266 Q399.875,442.0234 400.3594,441.5703 L400.3594,443.6641 Z " fill="#000000"/><text fill="#000000" font-family="DejaVu Sans" font-size="13" lengthAdjust="spacing" textLength="74.877" x="434.9958" y="436.3638">AgentTrace</text><text fill="#000000" font-family="DejaVu Sans" font-size="13" lengthAdjust="spacing" textLength="121.8687" x="411.5" y="451.4966">(&#1090;&#1088;&#1072;&#1089;&#1089;&#1072; &#1088;&#1077;&#1096;&#1077;&#1085;&#1080;&#1081;)</text><line style="stroke:#181818;stroke-width:0.5;" x1="385.5" x2="535.3687" y1="459.5625" y2="459.5625"/><text fill="#000000" font-family="DejaVu Sans" font-size="13" lengthAdjust="spacing" textLength="67.4121" x="390.5" y="475.6294">agent : str</text><text fill="#000000" font-family="DejaVu Sans" font-size="13" lengthAdjust="spacing" textLength="69.875" x="390.5" y="490.7622">action : str</text><text fill="#000000" font-family="DejaVu Sans" font-size="13" lengthAdjust="spacing" textLength="91.2031" x="390.5" y="505.895">summary : str</text></g><!--class AR--><g class="entity" data-entity="AR" data-source-line="32" data-uid="ent0006" id="entity_AR"><rect fill="#F1F1F1" height="123.9297" rx="4" ry="4" style="stroke:#181818;stroke-width:0.5;" width="169.6885" x="375.5" y="235.7969"/><ellipse cx="391.0662" cy="255.9297" fill="#ADD1B2" rx="10" ry="10" style="stroke:#181818;stroke-width:1;"/><path d="M392.9256,260.1641 Q392.4881,260.3828 391.9881,260.4922 Q391.5037,260.6172 390.9725,260.6172 Q389.0506,260.6172 388.035,259.3516 Q387.035,258.0859 387.035,255.6953 Q387.035,253.3047 388.035,252.0391 Q389.0506,250.7734 390.9725,250.7734 Q391.5037,250.7734 392.0037,250.8984 Q392.5037,251.0078 392.9256,251.2422 L392.9256,253.3203 Q392.4412,252.8828 391.9881,252.6797 Q391.535,252.4609 391.0506,252.4609 Q390.035,252.4609 389.5037,253.2891 Q388.9725,254.1016 388.9725,255.6953 Q388.9725,257.3047 389.5037,258.1172 Q390.035,258.9297 391.0506,258.9297 Q391.535,258.9297 391.9881,258.7266 Q392.4412,258.5234 392.9256,258.0703 L392.9256,260.1641 Z " fill="#000000"/><text fill="#000000" font-family="DejaVu Sans" font-size="13" lengthAdjust="spacing" textLength="101.499" x="421.7688" y="252.8638">AgentResponse</text><text fill="#000000" font-family="DejaVu Sans" font-size="13" lengthAdjust="spacing" textLength="136.208" x="404.4143" y="267.9966">(&#1086;&#1090;&#1074;&#1077;&#1090; &#1080;&#1085;&#1090;&#1077;&#1088;&#1092;&#1077;&#1081;&#1089;&#1091;)</text><line style="stroke:#181818;stroke-width:0.5;" x1="376.5" x2="544.1885" y1="276.0625" y2="276.0625"/><text fill="#000000" font-family="DejaVu Sans" font-size="13" lengthAdjust="spacing" textLength="136.5889" x="381.5" y="292.1294">type : ResponseType</text><text fill="#000000" font-family="DejaVu Sans" font-size="13" lengthAdjust="spacing" textLength="55.7451" x="381.5" y="307.2622">text : str</text><text fill="#000000" font-family="DejaVu Sans" font-size="13" lengthAdjust="spacing" textLength="157.6885" x="381.5" y="322.395">movies : list[MovieCard]</text><text fill="#000000" font-family="DejaVu Sans" font-size="13" lengthAdjust="spacing" textLength="150.3125" x="381.5" y="337.5278">trace : list[AgentTrace]</text><text fill="#000000" font-family="DejaVu Sans" font-size="13" lengthAdjust="spacing" textLength="86.2964" x="381.5" y="352.6606">stage : Stage</text></g><!--class C--><g class="entity" data-entity="C" data-source-line="39" data-uid="ent0007" id="entity_C"><rect fill="#F1F1F1" height="78.5313" rx="4" ry="4" style="stroke:#181818;stroke-width:0.5;" width="242.0898" x="563.5" y="258.2969"/><ellipse cx="654.3989" cy="278.4297" fill="#ADD1B2" rx="10" ry="10" style="stroke:#181818;stroke-width:1;"/><path d="M656.2583,282.6641 Q655.8208,282.8828 655.3208,282.9922 Q654.8364,283.1172 654.3052,283.1172 Q652.3833,283.1172 651.3677,281.8516 Q650.3677,280.5859 650.3677,278.1953 Q650.3677,275.8047 651.3677,274.5391 Q652.3833,273.2734 654.3052,273.2734 Q654.8364,273.2734 655.3364,273.3984 Q655.8364,273.5078 656.2583,273.7422 L656.2583,275.8203 Q655.7739,275.3828 655.3208,275.1797 Q654.8677,274.9609 654.3833,274.9609 Q653.3677,274.9609 652.8364,275.7891 Q652.3052,276.6016 652.3052,278.1953 Q652.3052,279.8047 652.8364,280.6172 Q653.3677,281.4297 654.3833,281.4297 Q654.8677,281.4297 655.3208,281.2266 Q655.7739,281.0234 656.2583,280.5703 L656.2583,282.6641 Z " fill="#000000"/><text fill="#000000" font-family="DejaVu Sans" font-size="13" lengthAdjust="spacing" textLength="44.0273" x="677.5313" y="275.3638">Choice</text><text fill="#000000" font-family="DejaVu Sans" font-size="13" lengthAdjust="spacing" textLength="52.292" x="673.3989" y="290.4966">(&#1074;&#1099;&#1073;&#1086;&#1088;)</text><line style="stroke:#181818;stroke-width:0.5;" x1="564.5" x2="804.5898" y1="298.5625" y2="298.5625"/><text fill="#000000" font-family="DejaVu Sans" font-size="13" lengthAdjust="spacing" textLength="87.877" x="569.5" y="314.6294">movie_id : int</text><text fill="#000000" font-family="DejaVu Sans" font-size="13" lengthAdjust="spacing" textLength="230.0898" x="569.5" y="329.7622">status : pending | rated | dismissed</text></g><!--class W--><g class="entity" data-entity="W" data-source-line="43" data-uid="ent0008" id="entity_W"><rect fill="#F1F1F1" height="108.7969" rx="4" ry="4" style="stroke:#181818;stroke-width:0.5;" width="223.2056" x="824" y="243.2969"/><ellipse cx="894.9229" cy="263.4297" fill="#ADD1B2" rx="10" ry="10" style="stroke:#181818;stroke-width:1;"/><path d="M896.7822,267.6641 Q896.3447,267.8828 895.8447,267.9922 Q895.3604,268.1172 894.8291,268.1172 Q892.9072,268.1172 891.8916,266.8516 Q890.8916,265.5859 890.8916,263.1953 Q890.8916,260.8047 891.8916,259.5391 Q892.9072,258.2734 894.8291,258.2734 Q895.3604,258.2734 895.8604,258.3984 Q896.3604,258.5078 896.7822,258.7422 L896.7822,260.8203 Q896.2979,260.3828 895.8447,260.1797 Q895.3916,259.9609 894.9072,259.9609 Q893.8916,259.9609 893.3604,260.7891 Q892.8291,261.6016 892.8291,263.1953 Q892.8291,264.8047 893.3604,265.6172 Q893.8916,266.4297 894.9072,266.4297 Q895.3916,266.4297 895.8447,266.2266 Q896.2979,266.0234 896.7822,265.5703 L896.7822,267.6641 Z " fill="#000000"/><text fill="#000000" font-family="DejaVu Sans" font-size="13" lengthAdjust="spacing" textLength="73.3599" x="913.9229" y="260.3638">WatchMark</text><text fill="#000000" font-family="DejaVu Sans" font-size="13" lengthAdjust="spacing" textLength="59.2617" x="920.9719" y="275.4966">(&#1086;&#1094;&#1077;&#1085;&#1082;&#1072;)</text><line style="stroke:#181818;stroke-width:0.5;" x1="825" x2="1046.2056" y1="283.5625" y2="283.5625"/><text fill="#000000" font-family="DejaVu Sans" font-size="13" lengthAdjust="spacing" textLength="87.877" x="830" y="299.6294">movie_id : int</text><text fill="#000000" font-family="DejaVu Sans" font-size="13" lengthAdjust="spacing" textLength="115.4575" x="830" y="314.7622">rating : int [1..10]</text><text fill="#000000" font-family="DejaVu Sans" font-size="13" lengthAdjust="spacing" textLength="211.2056" x="830" y="329.895">mood_match : MoodMatch [0..1]</text><text fill="#000000" font-family="DejaVu Sans" font-size="13" lengthAdjust="spacing" textLength="197.0122" x="830" y="345.0278">source : after_choice | manual</text></g><g class="link" data-entity-1="S" data-entity-2="V" data-uid="lnk9" id="link_S_V"><polygon fill="#444444" points="375.8375,130.3367,368.8747,128.4605,364.4649,134.166,371.4276,136.0422,375.8375,130.3367" style="stroke:#444444;stroke-width:1;"/><path d="M364.4649,134.166 C308.9638,152.8539 247.4202,177.3577 188.5,213.2969 C185.3885,215.1948 182.2792,217.195 179.1849,219.2763" fill="none" style="stroke:#444444;stroke-width:1;"/><text fill="#000000" font-family="DejaVu Sans" font-size="13" lengthAdjust="spacing" textLength="24.8066" x="180.1849" y="215.3432">0..1</text><text fill="#000000" font-family="DejaVu Sans" font-size="13" lengthAdjust="spacing" textLength="8.271" x="366.8375" y="126.4036">1</text></g><g class="link" data-entity-1="S" data-entity-2="R" data-uid="lnk10" id="link_S_R"><polygon fill="#444444" points="409.281,158.5349,402.2459,160.1183,401.0017,167.2213,408.0368,165.6379,409.281,158.5349" style="stroke:#444444;stroke-width:1;"/><path d="M401.0017,167.2213 C378.1623,191.184 359.4187,210.8494 335.8071,235.6222" fill="none" style="stroke:#444444;stroke-width:1;"/><text fill="#000000" font-family="DejaVu Sans" font-size="13" lengthAdjust="spacing" textLength="24.8066" x="310.8071" y="231.6891">0..1</text><text fill="#000000" font-family="DejaVu Sans" font-size="13" lengthAdjust="spacing" textLength="8.271" x="400.281" y="171.6018">1</text></g><g class="link" data-entity-1="AR" data-entity-2="T" data-uid="lnk11" id="link_AR_T"><polygon fill="#444444" points="460.5,359.8499,456.5,365.8499,460.5,371.8499,464.5,365.8499,460.5,359.8499" style="stroke:#444444;stroke-width:1;"/><path d="M460.5,371.8499 C460.5,391.4329 460.5,400.7838 460.5,419.1195" fill="none" style="stroke:#444444;stroke-width:1;"/><text fill="#000000" font-family="DejaVu Sans" font-size="13" lengthAdjust="spacing" textLength="23.0356" x="436.5" y="415.1864">0..*</text><text fill="#000000" font-family="DejaVu Sans" font-size="13" lengthAdjust="spacing" textLength="8.271" x="451.5" y="372.9168">1</text></g><g class="link" data-entity-1="S" data-entity-2="AR" data-uid="lnk12" id="link_S_AR"><polygon fill="#444444" points="460.5,235.6222,464.5,226.6222,460.5,230.6222,456.5,226.6222,460.5,235.6222" style="stroke:#444444;stroke-width:1;"/><path d="M460.5,158.5349 C460.5,182.4975 460.5,204.8494 460.5,229.6222" fill="none" style="stroke:#444444;stroke-width:1;stroke-dasharray:7,7;"/><text fill="#000000" font-family="DejaVu Sans" font-size="13" lengthAdjust="spacing" textLength="77.0923" x="462.5" y="190.3638">&#1092;&#1086;&#1088;&#1084;&#1080;&#1088;&#1091;&#1077;&#1090;</text></g><g class="link" data-entity-1="S" data-entity-2="C" data-uid="lnk13" id="link_S_C"><polygon fill="#444444" points="640.1994,258.0978,636.0392,249.1707,636.4288,254.8141,630.7853,255.2036,640.1994,258.0978" style="stroke:#444444;stroke-width:1;"/><path d="M524.6355,158.5721 C531.6887,164.5376 538.7545,170.5365 545.5,176.2969 C577.3158,203.4663 608.4434,230.4428 635.6746,254.1574" fill="none" style="stroke:#444444;stroke-width:1;stroke-dasharray:7,7;"/><text fill="#000000" font-family="DejaVu Sans" font-size="13" lengthAdjust="spacing" textLength="138.1504" x="567.5" y="190.3638">&#1089;&#1086;&#1079;&#1076;&#1072;&#1105;&#1090; &#1087;&#1088;&#1080; &#1074;&#1099;&#1073;&#1086;&#1088;&#1077;</text></g><g class="link" data-entity-1="S" data-entity-2="W" data-uid="lnk14" id="link_S_W"><polygon fill="#444444" points="864.4615,243.278,859.2256,234.9362,860.3125,240.4877,854.7611,241.5745,864.4615,243.278" style="stroke:#444444;stroke-width:1;"/><path d="M545.2697,121.8672 C619.0838,138.7787 727.5864,168.6597 814.5,213.2969 C831.301,221.9256 843.5206,229.1944 859.4827,239.9296" fill="none" style="stroke:#444444;stroke-width:1;stroke-dasharray:7,7;"/><text fill="#000000" font-family="DejaVu Sans" font-size="13" lengthAdjust="spacing" textLength="137.1538" x="771.5" y="190.3638">&#1089;&#1086;&#1079;&#1076;&#1072;&#1105;&#1090; &#1087;&#1088;&#1080; &#1086;&#1094;&#1077;&#1085;&#1082;&#1077;</text></g><!--SRC=[TLJDRXCn4BxdAKnEKAbHU-q1gGf7SacYvX2gbV5EirPtxSZsfaI0rAO8WJWWRhto1g5jH7_JLx3VY9dTpGRKSbhFU3ppVJFVx3EfH9h7m2BhfYcqP9wb3ITT2ip_3AVXgx_tot0IPlwA-Jk_z9VXrD-6xyoV-RDDF_SNVk7lyNhfpnk9n4IGZTsKPU0I7Tk6IBcrhFbAybIFUc2jrEgDUXvE_0ApdlWhIdNfhp3JBUQuyFCNJSOjwx7t3SPo2oQICTjXrXcqhUCZGAj7NxGnkv47Kd27QMt4xI5Gi5IE7ezZxY2Ek4CN7PtCeF5n1GbpEDW3uRH1GFuSUTmGZt3C45V9UHc-8t_4M8BQAq1bMbEH3dxG0WLcD4NxDKmWHGUVS9dojob4cLIv0ri34ZeRSqMnxVA4lX4e0z6Hj4aHc4hhQY-Vw89xvJm2xX8mw1XKf-5MgxMzZrTAbtMmIojdpRCBM3S35HTD8geFD4R_YwZwcrN3kmKt2zo89196EZ2IK-EaAB1p5Kjg8evZ1NI8jAYwo8tLfgPf4tsadWWhSuEDXCwLgy9hcBl8sVKD5q3oc26qUI6GESFZ8dmXcQ5Chakq_G8jfpUrEBWWWckjv5d6pRIo_wtJ1Jj6mL0fxCACXXzc3DEJaXVXE7p2SjTO_xGijrjsnqt7fBxLwpwQv8LtQn2PdiXwaiCEMMrkOkBlYDpgPart_v6kQwpjHCkY7_uyV2i7Lk9fLqB4xELwL9r7IUTKV8pZbch4FZ13Au3VMDfCMWlnElk0Ev5qk3aik_2vw72jXy7J9J0V9IvCDjn6gMtjLpiHPPImsenESQu5QdLk2lBy08KLYO8OmiguodcAc7gikTra6vkRh4blccpliQlRm3dyxTjeiZw6jLelQK8x3CT6chx3ZJt6tnJEjBfjqoKkjV-Dmf-77pJi1up4VrhTMR-eWWV_3rvtQV47]--></g></svg>